<svg width="1304" height="638" viewBox="0 0 1304 638" fill="none" xmlns="http://www.w3.org/2000/svg">
<rect width="1304" height="638" transform="matrix(1 0 0 -1 0 638)" fill="#1EBFBF"/>
<path d="M294.769 318C294.216 318 293.769 318.448 293.769 319C293.769 319.552 294.216 320 294.769 320L294.769 318ZM388.952 319.707C389.342 319.317 389.342 318.683 388.952 318.293L382.588 311.929C382.197 311.538 381.564 311.538 381.174 311.929C380.783 312.319 380.783 312.953 381.174 313.343L386.83 319L381.174 324.657C380.783 325.047 380.783 325.681 381.174 326.071C381.564 326.462 382.197 326.462 382.588 326.071L388.952 319.707ZM294.769 320L388.245 320L388.245 318L294.769 318L294.769 320Z" fill="#16191C"/>
<path d="M612.979 318C612.426 318 611.979 318.448 611.979 319C611.979 319.552 612.426 320 612.979 320L612.979 318ZM707.162 319.707C707.552 319.317 707.552 318.683 707.162 318.293L700.798 311.929C700.407 311.538 699.774 311.538 699.384 311.929C698.993 312.319 698.993 312.953 699.384 313.343L705.04 319L699.384 324.657C698.993 325.047 698.993 325.681 699.384 326.071C699.774 326.462 700.407 326.462 700.798 326.071L707.162 319.707ZM612.979 320L706.455 320L706.455 318L612.979 318L612.979 320Z" fill="#16191C"/>
<path d="M295.775 166.807C295.277 166.568 294.68 166.779 294.441 167.277C294.203 167.775 294.413 168.372 294.911 168.611L295.775 166.807ZM388.178 212.943C388.699 212.76 388.973 212.188 388.789 211.668L385.797 203.179C385.614 202.658 385.043 202.385 384.522 202.569C384.001 202.752 383.728 203.323 383.911 203.844L386.57 211.389L379.025 214.048C378.504 214.232 378.231 214.803 378.414 215.324C378.598 215.845 379.169 216.118 379.69 215.935L388.178 212.943ZM294.911 168.611L387.414 212.902L388.278 211.098L295.775 166.807L294.911 168.611Z" fill="#16191C"/>
<path d="M295.775 471.193C295.277 471.432 294.68 471.221 294.441 470.723C294.203 470.225 294.413 469.628 294.911 469.389L295.775 471.193ZM388.178 425.057C388.699 425.24 388.973 425.811 388.789 426.332L385.797 434.821C385.614 435.341 385.043 435.615 384.522 435.431C384.001 435.248 383.728 434.677 383.911 434.156L386.57 426.611L379.025 423.951C378.504 423.768 378.231 423.197 378.414 422.676C378.598 422.155 379.169 421.882 379.69 422.065L388.178 425.057ZM294.911 469.389L387.414 425.098L388.278 426.902L295.775 471.193L294.911 469.389Z" fill="#16191C"/>
<path d="M944.197 269.816C943.699 270.055 943.102 269.844 942.863 269.346C942.625 268.848 942.835 268.251 943.333 268.012L944.197 269.816ZM1036.6 223.68C1037.12 223.864 1037.39 224.435 1037.21 224.955L1034.22 233.444C1034.04 233.965 1033.47 234.238 1032.94 234.054C1032.42 233.871 1032.15 233.3 1032.33 232.779L1034.99 225.234L1027.45 222.575C1026.93 222.391 1026.65 221.82 1026.84 221.299C1027.02 220.778 1027.59 220.505 1028.11 220.688L1036.6 223.68ZM943.333 268.012L1035.84 223.721L1036.7 225.525L944.197 269.816L943.333 268.012Z" fill="#16191C"/>
<path d="M944.197 368.184C943.699 367.945 943.102 368.156 942.863 368.654C942.625 369.152 942.835 369.749 943.333 369.988L944.197 368.184ZM1036.6 414.32C1037.12 414.137 1037.39 413.566 1037.21 413.045L1034.22 404.556C1034.04 404.036 1033.47 403.762 1032.94 403.946C1032.42 404.129 1032.15 404.7 1032.33 405.221L1034.99 412.766L1027.45 415.425C1026.93 415.609 1026.65 416.18 1026.84 416.701C1027.02 417.222 1027.59 417.495 1028.11 417.312L1036.6 414.32ZM943.333 369.988L1035.84 414.279L1036.7 412.475L944.197 368.184L943.333 369.988Z" fill="#16191C"/>
<circle cx="823.244" cy="300.138" r="69.3505" fill="#F9F9F9"/>
<mask id="mask0_648_549" style="mask-type:alpha" maskUnits="userSpaceOnUse" x="753" y="230" width="140" height="140">
<circle cx="823.244" cy="300.137" r="69.3505" fill="white"/>
</mask>
<g mask="url(#mask0_648_549)">
<path d="M1058.39 346.713C1058.08 345.493 1056.77 346.609 1056.12 346.399C1054.88 345.946 1055.27 344.935 1054.35 344.342C1054.12 344.203 1052.38 343.261 1053.04 344.586C1053.42 345.353 1054.04 346.225 1054.23 346.992C1054.38 347.69 1053.81 348.248 1054.11 348.91C1055.35 351.595 1056.35 348.701 1057 347.899C1057.35 347.446 1058.58 347.585 1058.39 346.713ZM1053.27 350.549C1051.42 350.026 1046.3 353.687 1049.65 354.629C1051.61 355.187 1051.34 354.21 1052.27 352.955C1052.58 352.537 1054.73 350.863 1053.27 350.549ZM1030.52 322.618C1030.17 322.06 1029.33 321.781 1028.98 321.258C1028.75 320.91 1029.06 320.177 1028.94 320.073C1028.67 319.759 1028.02 319.724 1027.9 319.619C1028.09 319.864 1026.75 318.469 1026.98 318.573C1025.67 317.876 1021.36 316.202 1019.86 316.795C1016.24 318.225 1018.32 316.446 1015.66 315.47C1015.28 315.33 1013.39 314.738 1013.47 315.609C1013.5 315.854 1014.93 316.621 1015.24 316.934C1015.39 317.074 1016.28 317.946 1016.28 317.981C1016.39 318.085 1016.43 318.399 1016.82 318.608C1017.16 318.817 1018.01 318.748 1018.43 318.852C1019.12 319.062 1020.66 319.585 1021.01 320.108C1021.28 320.491 1020.66 321.154 1020.59 321.119C1020.7 321.223 1021.16 321.572 1021.32 321.712C1021.09 321.502 1024.59 322.723 1024.4 322.793C1025.67 322.723 1025.59 321.502 1027.02 321.781C1027.67 321.921 1028.21 322.967 1029.06 323.281C1030.75 323.943 1031.29 323.908 1030.52 322.618ZM1007.04 304.625C1006.69 304.416 1004.61 303.789 1005.73 304.765C1006.42 305.218 1008.31 308.845 1008.35 306.369C1008.39 305.672 1007.69 305.044 1007.04 304.625ZM1005.27 308.705C1006.11 309.612 1009 311.774 1009.96 309.891C1011.66 306.613 1005.34 307.171 1005.27 308.705ZM1009.27 313.657C1009.15 313.308 1005.15 314.319 1005.07 314.528C1004.42 316.063 1003.61 317.179 1004.07 318.852C1005.11 322.339 1004.77 318.539 1005.42 318.364C1006 318.225 1006.88 320.282 1007.65 319.096C1008.04 318.504 1006.88 317.562 1006.58 317.039C1006.42 316.69 1007.23 316.446 1007 316.167C1006.96 316.132 1006.27 315.714 1006.31 315.819C1006.23 315.609 1005.04 316.202 1005.42 315.261C1005.77 314.494 1010 316.028 1009.27 313.657ZM1004.81 300.406C1004.38 300.336 1003.73 300.441 1003.61 300.86C1003.3 301.975 1003.03 305.253 1004.88 303.44C1004.73 303.579 1005.31 301.522 1005.34 301.662C1005.27 301.138 1006.04 300.615 1004.81 300.406ZM1003.34 295.35C1002.61 295.838 1002.57 297.826 1003.88 297.861C1005.07 297.861 1004.3 294.583 1003.34 295.35ZM864.805 316.9C862.65 316.377 860.109 316.063 858.069 315.261C856.452 314.598 856.26 313.936 855.374 312.541C853.488 309.682 848.946 308.287 845.635 307.066C843.557 306.299 842.941 306.822 840.862 306.927C839.207 307.031 837.898 306.055 836.128 306.195C834.088 306.334 833.549 307.799 831.662 308.182C830.238 308.461 828.006 308.252 827.043 307.345C825.35 305.776 827.544 304.277 826.581 302.917C825.773 301.801 823.656 303.021 822.732 301.906C821.924 300.929 823.771 298.698 822.347 298C820.807 297.233 819.73 299.151 818.96 299.604C817.073 300.755 815.11 299.918 813.879 298.349C813.109 297.373 812.57 296.117 812.531 294.897C812.454 293.502 813.802 292.979 814.956 292.003C815.919 291.235 816.265 291.061 816.573 291.096C816.958 291.131 817.304 291.514 818.652 291.34C819.884 291.201 819.46 290.782 820.961 290.608C821.962 290.503 825.003 290.747 825.888 291.375C826.812 292.037 827.005 295.141 828.352 294.06C829.391 293.188 828.121 291.131 827.89 290.12C827.39 287.853 827.775 288.027 829.969 286.877C831.662 286.005 831.739 285.9 832.124 284.227C832.663 281.751 832.471 281.925 834.318 280.565C835.396 279.763 835.242 278.682 836.166 277.845C836.397 277.671 838.476 276.904 838.861 277.009C840.131 277.357 838.745 277.497 839.246 278.09C839.4 278.264 838.976 279.24 839.669 279.38C840.362 279.519 841.17 278.124 841.594 277.845C842.595 277.253 845.058 277.566 844.712 276.067C844.404 274.742 841.979 276.416 841.055 275.579C836.975 271.883 857.491 272.197 844.365 266.234C842.21 265.257 842.017 265.048 840.862 263.026C840.708 262.782 839.823 260.864 839.592 260.829C838.206 260.48 839.438 261.143 838.591 261.596C837.359 262.259 836.243 263.653 835.088 261.666C834.434 260.515 834.896 260.201 834.819 259.853C834.78 259.609 834.511 259.364 833.395 258.806C831.585 257.865 830.816 257.481 829.006 257.726C826.466 258.074 826.466 258.249 827.005 259.818C827.39 260.864 827.736 260.934 827.852 261.805C827.929 262.293 827.313 262.503 827.505 263.27C827.621 263.723 828.506 264.351 828.891 264.874C829.006 265.013 829.083 265.188 829.083 265.327C829.045 266.164 828.121 266.234 827.698 266.896C826.851 268.256 827.467 267.489 827.159 269.198C827.043 269.86 827.659 270.244 826.735 270.383C824.965 270.662 824.464 268.082 823.964 267.35C823.425 266.548 822.886 266.164 822.155 265.92C821.462 265.641 820.615 265.502 819.537 265.223C819.345 265.153 818.883 265.118 818.305 265.048C817.112 264.909 815.495 264.734 815.264 264.595C814.533 264.107 815.033 263.514 814.61 262.851C814.61 262.817 814.571 262.817 814.571 262.782C814.494 262.677 814.417 262.607 814.302 262.572C813.956 262.433 813.571 262.712 813.378 262.293C813.147 261.875 813.032 261.491 812.993 261.143C812.839 260.062 813.455 259.26 814.648 258.632C814.764 258.562 816.381 258.039 816.381 258.109C816.458 258.004 816.843 257.168 816.727 257.237C816.997 256.993 818.998 254.866 819.499 255.041C820.23 255.32 819.499 257.377 821.5 257.098C823.848 256.784 821.885 255.215 822.039 254.378C822.232 253.227 823.617 252.704 823.771 251.623C823.771 251.658 823.309 249.427 823.386 249.496C822.694 248.694 820.23 248.555 819.768 249.008C819.422 249.357 820.961 251.275 819.114 251.763C817.497 252.181 818.767 250.752 817.689 249.984C817.035 249.531 816.689 250.368 816.65 250.368C816.342 250.194 815.996 250.054 815.495 249.671C814.918 249.217 814.417 247.788 813.725 246.707C812.993 245.486 812.108 244.684 810.799 245.974C809.644 247.125 810.992 248.067 812.031 248.938C813.032 249.81 813.725 250.612 811.607 251.554C811.415 251.623 811.184 251.693 810.876 251.763C809.105 252.042 805.795 251.658 804.448 251.414C801.715 250.856 798.635 251.519 795.594 251.414C795.671 251.414 794.285 250.089 793.939 249.88C792.9 249.322 790.937 249.217 789.82 248.973C785.932 248.101 783.084 247.718 779.235 248.834C773.268 250.542 767.379 248.52 761.181 247.823C758.025 247.474 755.215 248.101 752.366 249.043C751.635 249.287 749.903 249.392 750.172 250.473C750.365 251.24 752.212 251.309 752.674 251.798C754.483 253.715 751.558 252.669 751.904 254.204C752.097 255.11 753.945 254.831 754.137 255.843C754.483 257.865 749.364 257.516 750.557 259.887C750.981 260.724 755.33 262.782 756.331 262.991C757.948 263.34 759.642 262.817 761.066 262.398C763.067 261.805 765.531 260.515 767.687 260.585C769.457 260.62 771.882 261.84 773.615 262.328C777.502 263.479 778.234 266.896 781.313 269.128C783.315 270.558 786.972 271.116 788.627 272.859C789.666 273.975 789.127 275.23 788.973 276.834C788.819 278.403 788.242 280.251 788.973 281.646C789.666 282.971 791.052 284.296 792.361 285.552C792.977 286.144 793.516 286.702 794.016 287.225C795.132 288.481 800.868 295.455 801.676 295.071C802.639 294.583 799.79 292.072 802.1 293.258C803.37 293.92 804.871 296.919 805.718 298.035C807.065 299.813 808.451 300.615 810.145 301.208C811.376 301.627 812.762 301.94 814.417 302.429C815.919 302.882 816.65 303.126 817.92 303.928C818.575 304.346 819.152 304.904 819.883 305.114C820.73 305.358 821.885 304.8 822.694 305.114C823.848 305.567 824.503 307.345 825.657 308.112C827.274 309.193 828.852 309.193 830.585 309.612C836.782 311.146 829.43 315.052 829.199 317.144C828.814 320.456 832.432 324.013 834.511 326.524C835.589 327.849 836.782 328.197 838.091 329.278C839.631 330.534 839.4 331.266 839.246 332.94C838.63 339.216 837.167 345.981 837.475 352.292C837.629 355.222 838.899 358.743 839.938 361.568C840.439 362.893 841.671 364.741 843.595 364.113C845.982 363.311 843.595 360.557 843.634 358.988C843.672 356.686 845.212 351.839 846.906 350.165C848.176 348.91 850.332 348.457 851.64 347.271C852.949 346.086 852.872 344.97 854.527 344.133C855.528 343.645 856.067 343.819 856.76 342.878C857.183 342.32 857.337 341.518 857.607 340.89C858.223 339.46 858.646 337.194 859.686 335.973C861.995 333.323 866.306 334.997 866.922 330.952C867.153 329.383 866.73 327.012 867.577 325.617C868.347 324.362 870.541 324.083 871.195 322.723C873.197 318.608 868 317.667 864.805 316.9ZM837.86 251.379C836.397 250.542 836.474 249.427 835.281 248.415C834.934 248.101 834.472 247.857 833.972 247.613C833.01 247.16 831.932 246.776 831.124 246.288C829.699 245.451 828.583 243.987 827.197 243.15C826.774 242.906 826.312 242.697 825.85 242.592C824.349 242.243 817.92 241.964 817.42 243.638C817.343 243.778 817.304 243.952 817.266 244.091C816.689 246.567 822.078 247.02 823.81 247.509C825.965 248.136 828.121 249.043 829.006 250.996C829.468 252.007 829.006 253.367 829.507 254.378C830.161 255.703 831.239 256.017 832.625 256.714C833.472 257.133 834.549 257.935 835.55 258.318C835.743 258.388 835.974 258.458 836.128 258.493C838.553 258.911 838.168 257.795 839.092 256.4C839.554 255.703 841.016 254.727 841.055 253.82C841.17 251.798 839.207 252.146 837.86 251.379ZM813.378 242.592C811.954 242.348 810.337 243.743 812.069 244.614C813.994 245.591 815.187 242.592 813.378 242.592ZM806.834 243.185C804.101 244.684 808.489 246.986 809.144 246.184C811.223 244.51 809.413 241.79 806.834 243.185ZM806.372 247.683C806.064 246.881 804.717 246.602 804.178 246.009C803.331 245.068 803.254 243.429 801.869 242.906C799.982 242.174 797.634 243.987 795.71 243.603C793.708 243.185 783.584 239.942 785.124 244.649C785.855 246.846 789.05 245.661 790.706 246.218C792.63 246.881 793.785 249.008 795.633 249.566C797.634 250.159 799.482 248.729 801.561 248.938C803.023 249.113 807.758 251.1 806.372 247.683ZM799.675 239.279C798.866 238.617 794.593 237.919 793.285 237.431C791.86 236.873 791.668 236.734 790.321 237.013C789.82 237.117 786.394 238.408 788.435 239.175C790.398 239.907 792.861 241.406 794.94 241.616C796.518 241.755 801.753 240.988 799.675 239.279ZM798.789 235.548C798.558 233.386 793.631 235.269 794.901 236.56C795.825 237.292 798.943 236.943 798.789 235.548ZM811.492 240.047C811.146 239.21 809.028 238.582 808.259 238.164C807.489 237.71 807.335 237.187 806.218 237.187C805.449 237.187 803.601 237.571 804.833 238.652C805.795 239.523 806.642 240.5 807.835 240.953C808.99 241.406 812.262 241.93 811.492 240.047ZM837.629 227.807C835.435 227.249 833.125 226.831 830.893 226.447C828.352 225.994 826.389 226.552 823.848 227.005C821.346 227.459 818.806 227.877 816.304 228.33C815.072 228.539 813.571 228.365 814.11 229.481C815.341 232.026 822.54 229.899 823.04 230.911C823.694 232.166 818.575 232.236 818.228 232.201C815.996 231.922 814.148 230.492 812.146 229.969C811.107 229.69 807.258 230.213 807.489 231.538C807.758 233.073 811.338 234.537 812.762 235.025C813.648 235.304 814.456 235.723 815.303 235.618C815.957 235.548 817.843 233.944 818.305 234.746C818.96 235.862 814.918 237.954 814.263 238.024C813.84 238.059 808.143 235.827 809.875 238.094C810.53 238.966 812.146 238.373 812.916 239C813.532 239.489 813.763 241.755 814.533 241.755H818.883C819.922 241.755 823.925 242.348 824.734 241.755C827.621 239.768 822.001 239.245 820.576 239.523C819.614 239.733 817.189 241.162 816.65 239.698C816.111 238.198 818.767 238.512 819.653 238.547C821 238.617 824.002 239.593 825.157 239.14C826.158 238.756 825.811 237.71 826.427 236.769C826.889 236.071 828.083 235.723 828.429 234.99C828.544 234.746 828.16 234.188 828.044 234.223C828.583 233.596 829.815 233.107 831.008 232.584C832.625 231.852 837.86 230.213 838.976 229.063C839.938 227.947 838.976 228.156 837.629 227.807ZM806.334 234.851C805.487 233.421 800.675 234.014 802.177 235.479C803.1 235.967 807.604 236.978 806.334 234.851ZM808.22 235.06C808.797 235.897 809.914 235.932 810.183 234.956C810.53 233.735 807.373 233.352 808.22 235.06ZM881.165 230.318C881.126 226.866 859.455 226.133 856.106 226.691C851.102 227.493 844.673 227.424 840.67 230.248C838.399 231.852 836.859 232.863 834.088 233.665C832.74 234.084 831.047 234.223 831.316 235.792C831.47 236.664 833.626 239.105 834.665 239.14C836.667 239.21 839.361 238.861 841.247 239.558C843.441 240.395 845.828 243.01 847.522 244.51C850.948 247.509 850.678 252.948 851.91 256.889C852.333 258.249 853.257 260.376 854.989 260.829C857.799 261.561 857.568 256.993 858.877 255.668C859.917 254.587 860.571 255.18 861.995 254.901C863.458 254.587 863.843 254.134 864.805 253.123C866.499 251.275 868.193 250.891 870.733 250.054C874.082 248.938 877.508 244.091 876.892 240.709C876.507 238.547 873.697 236.106 875.314 234.188C876.469 232.933 881.165 232.271 881.165 230.318ZM1050.88 249.113C1048.03 248.171 1045.72 246.776 1043.07 247.997C1040.45 249.182 1038.02 249.322 1034.87 248.799C1031.9 248.311 1031.02 245.765 1028.48 244.545C1026.01 243.359 1022.01 244.091 1019.39 244.091C1018.12 244.091 1017.01 243.952 1015.93 244.475C1014.43 245.207 1014.16 246.742 1012.27 246.951C1011.23 247.055 1008.77 246.428 1007.77 246.079C1005.57 245.242 1006.42 244.091 1004.92 242.871C1004.27 242.348 1001.73 241.825 1000.96 241.895C999.07 242.069 999.185 243.778 997.222 243.778C996.452 243.778 993.758 242.976 993.103 242.557C990.64 240.883 993.411 240.744 993.565 239.21C993.835 236.629 988.984 237.083 987.214 236.943C984.481 236.734 980.978 235.897 978.283 236.246C975.589 236.594 972.856 238.617 970.508 239.733C969.738 240.116 968.237 240.535 967.621 241.127C966.581 242.139 966.697 243.01 965.273 243.847C964.464 244.336 962.732 245.347 961.731 245.382C960.153 245.451 959.383 244.336 957.805 244.44C956.766 244.51 954.648 245.486 953.802 246.009C953.378 246.253 952.916 246.253 952.57 246.637C951.954 247.299 952.454 248.555 951.453 249.008C950.337 249.496 948.412 248.311 947.258 248.241C945.218 248.136 945.41 249.252 943.793 249.88C941.676 250.682 938.905 249.95 936.749 250.856C933.978 252.042 931.706 254.936 928.781 255.738C927.896 255.982 926.664 256.191 926.009 255.11C924.816 253.088 928.281 253.716 929.166 252.879C930.706 251.414 927.549 250.403 925.663 249.705C925.394 249.601 925.163 249.496 924.932 249.427C922.853 248.52 919.119 246.009 916.848 245.905C914.384 245.8 911.074 248.764 909.149 249.845C907.956 250.507 906.955 251.065 906.031 251.763C905.377 252.216 904.8 252.774 904.222 253.437C902.913 254.901 898.91 257.865 898.718 259.818C898.641 260.55 899.911 262.468 900.642 262.851C902.298 263.758 902.836 262.224 904.453 262.433C906.455 262.712 906.801 267.768 909.919 264.839C910.458 264.316 911.267 262.154 911.344 261.457C911.497 260.201 910.458 259.051 910.92 257.865C911.113 257.377 912.537 255.877 914 254.971C915.193 254.204 916.348 253.855 916.848 254.692C916.887 254.727 916.887 254.796 916.925 254.831C917.464 256.61 910.882 258.911 915.578 260.62C916.502 260.968 918.965 259.783 919.658 260.864C920.62 262.328 917.502 262.049 916.925 262.607C916.117 263.409 916.771 264.386 915.539 265.188C914.269 266.025 912.113 266.722 910.612 267.14C908.38 267.768 905.916 266.896 903.683 267.315C901.451 267.733 899.295 269.546 897.601 270.802C896.485 271.604 894.907 272.475 894.599 273.835C894.252 275.509 896.447 276.834 895.215 278.403C894.329 279.519 892.905 278.647 891.635 279.17C890.172 279.763 891.81 282.657 892.926 284.087C894.312 285.9 896.062 285.517 897.563 284.087C898.679 283.006 897.794 281.088 899.18 279.868C900.026 279.101 902.144 278.159 903.26 277.985C905.646 277.601 905.685 278.961 906.955 280.251C907.417 280.74 909.688 282.762 910.343 282.832C913.923 283.181 908.803 278.508 908.649 277.532C908.572 277.148 908.803 275.997 909.226 275.788C910.266 275.3 910.035 275.928 910.612 276.52C911.305 277.218 911.921 278.647 912.691 279.484C913.769 280.705 915.732 284.575 917.156 284.68C918.58 284.785 918.157 282.902 919.35 283.076C920.351 283.215 920.89 285.342 922.391 285.656C923.7 285.9 925.124 284.959 926.471 285.203C928.396 285.587 929.435 287.539 928.435 289.108C927.241 290.956 923.353 290.12 921.121 289.736C919.851 289.527 917.964 288.899 916.694 289.004C914.692 289.178 914.461 290.747 912.229 290.329C910.882 290.085 908.61 289.248 907.456 288.516C905.8 287.504 906.917 287.923 906.378 286.423C905.877 285.063 906.224 285.377 904.53 285.273C902.836 285.168 900.989 285.482 899.295 285.587C895.523 285.831 891.981 286.214 889.556 289.004C888.094 290.678 886.746 292.456 885.399 294.234C884.783 295.071 883.705 296.082 883.474 297.128C883.089 298.872 884.514 300.755 884.321 302.638C884.013 305.985 886.361 307.206 889.017 309.437C891.481 311.495 893.059 312.018 896.293 311.983C897.486 311.983 898.487 311.948 899.603 311.599C900.758 311.251 901.836 310.17 903.144 310.379C903.953 310.518 904.992 311.669 905.839 311.983C907.648 312.646 907.379 311.599 907.995 313.448C908.38 314.668 907.995 315.958 908.495 317.179C908.918 318.225 909.842 319.306 910.42 320.247C912.267 323.176 911.882 323.978 911.305 327.082C910.805 329.697 912.537 330.882 913.153 333.358C913.461 334.613 913.114 335.834 913.769 337.054C914.307 338.1 915.462 339.112 916.232 340.088C918.195 342.494 918.811 343.784 922.122 343.889C925.778 343.993 926.664 343.61 928.55 340.96C929.32 339.879 929.705 339.251 929.974 337.996C930.359 336.322 930.359 336.462 931.591 335.346C933.015 334.021 932.322 333.811 932.669 332.173C932.938 330.848 933.67 330.325 934.67 329.348C936.672 327.395 937.018 325.861 936.403 323.037C936.172 322.025 935.363 321.293 935.094 320.352C934.632 318.678 935.44 318.26 936.48 317.179C938.327 315.261 941.214 313.552 942.292 311.146C942.831 309.961 943.139 307.868 941.984 306.857C940.56 305.637 938.096 306.369 936.326 305.183C934.17 303.754 932.784 302.917 931.706 300.685C931.398 300.023 927.742 293.362 928.204 293.084C928.588 292.874 933.246 297.791 933.747 298.419C935.44 300.546 936.326 304.66 939.867 304.66C941.869 304.66 946.064 303.196 947.489 302.15C949.567 300.65 950.645 296.815 947.527 295.315C945.641 294.409 945.872 295.908 944.217 296.152C942.446 296.396 941.869 294.862 941.06 293.502C940.598 292.7 939.29 291.166 941.06 290.922C942.138 290.782 943.293 293.188 944.486 293.502C945.833 293.851 946.95 293.223 948.297 293.781C950.183 294.513 950.145 294.967 952.416 294.967C956.073 294.967 957.343 295.838 959.845 298.593C961.539 300.441 962.578 302.777 963.81 304.904C965.388 307.589 966.427 309.577 968.275 306.195C969.699 303.614 970.7 302.533 973.125 300.72C974.203 299.918 975.473 298.488 976.782 298C978.476 297.338 978.668 297.791 979.554 299.325C980.516 301.034 980.246 301.104 981.94 301.906C982.518 302.185 983.056 301.731 983.711 302.219C984.211 302.603 984.481 304.102 984.596 304.591C985.174 306.962 985.058 308.914 986.752 311.041C987.368 311.809 988.368 313.343 989.446 312.262C990.255 311.425 988.484 309.403 987.945 308.705C987.483 308.112 985.443 306.543 987.175 306.055C988.753 305.602 989.1 308.391 990.486 308.601C992.834 308.914 995.528 304.346 994.181 302.533C993.45 301.522 991.371 301.592 991.255 300.127C991.102 297.965 993.95 299.43 995.028 299.395C997.145 299.36 1001.23 296.501 1002.38 295.071C1003.57 293.607 1004.19 289.98 1003.73 288.097C1003.38 286.633 1002.07 285.935 1002.46 284.366C1002.88 282.692 1004.65 282.378 1006.27 283.181C1007.62 283.808 1007.85 285.761 1009.15 286.075C1012.39 286.842 1009.46 283.529 1009.35 282.832C1009.19 281.855 1009.81 280.356 1010.81 279.763C1012 279.066 1013.74 279.903 1014.93 279.345C1016.7 278.508 1018.47 274.428 1018.93 272.685C1019.16 271.848 1019.2 270.279 1018.86 269.477C1018.24 268.012 1015.97 267.908 1016.31 266.304C1016.66 264.665 1020.2 262.468 1021.9 262.189C1024.82 261.701 1027.21 262.712 1029.75 261.247C1030.67 260.689 1036.25 256.435 1037.02 259.748C1037.52 262.015 1031.98 263.584 1031.6 265.955C1031.29 267.942 1032.6 271.813 1035.02 270.314C1037.18 268.988 1038.95 266.199 1039.37 263.967C1039.87 261.213 1042.14 261.491 1044.92 260.515C1046.34 260.027 1047.73 259.19 1049.19 258.841C1050.03 258.632 1051.15 258.876 1051.92 258.597C1053.23 258.109 1057.16 254.552 1057.66 253.332C1058.85 250.647 1052.96 249.81 1050.88 249.113ZM933.978 281.367C932.476 282.134 928.588 280.53 926.856 280.391C924.123 280.182 921.236 280.461 922.853 277.218C923.507 275.893 923.854 275.614 925.471 275.335C926.702 275.126 929.705 275.021 930.128 276.451C930.629 277.915 937.403 279.624 933.978 281.367ZM942.254 285.238C939.752 285.238 940.175 282.065 939.367 280.496C938.443 278.752 936.826 276.241 940.29 276.032C941.599 275.928 942.523 276.764 943.062 277.845C943.216 278.124 943.331 278.403 943.408 278.717C943.601 279.31 943.716 279.938 943.755 280.496C943.909 282.065 944.91 285.238 942.254 285.238ZM941.907 326.768C940.329 328.442 939.598 329.418 939.367 331.684C939.213 333.463 939.752 337.054 942.792 335.52C944.409 334.718 944.679 331.336 945.025 329.836C945.372 328.302 944.409 324.118 941.907 326.768ZM989.331 315.226C989.177 315.156 983.826 312.192 985.481 314.633C986.367 315.923 992.256 322.932 992.795 318.364C992.988 316.725 990.832 316.098 989.331 315.226ZM994.143 319.759C993.527 321.886 998.492 323.42 999.878 322.165C1002.76 319.585 995.143 317.423 994.143 319.759ZM1002.73 312.192C1002.5 311.146 1003.27 309.682 1002.03 309.019C1000.26 308.078 999.993 309.926 999.455 310.972C998.916 312.053 998.608 312.646 997.414 313.308C996.683 313.726 994.027 313.936 995.259 315.365C996.452 316.725 998.954 319.48 1001.26 318.643C1002.15 318.329 1002.92 316.202 1003.19 315.505C1003.8 313.796 1003.07 313.866 1002.73 312.192ZM1035.21 336.357C1034.64 333.358 1030.98 332.242 1028.79 330.046C1027.79 329.034 1027.05 326.803 1025.82 326.14C1022.51 324.362 1024.32 328.197 1022.63 329.069C1019.86 330.499 1019.7 325.966 1019.16 325.164C1017.74 323.106 1015.01 324.885 1013.81 325.966C1012.16 327.43 1010.96 326.907 1009.31 327.884C1008.04 328.616 1007.58 330.569 1006 331.161C1004.73 331.615 1002.5 331.998 1001.53 332.835C1000.26 333.951 1001.15 335.485 1001.57 337.02C1002 338.658 1002.19 340.89 1003.03 342.389C1004 344.098 1005.07 343.749 1007.04 343.749C1008.77 343.749 1009.73 343.715 1011.23 343.157C1013.31 342.355 1014.43 340.925 1016.74 341.832C1017.55 342.145 1018.2 343.017 1019.05 343.226C1019.82 343.436 1020.28 343.087 1020.9 343.157C1023.9 343.401 1022.59 344.935 1024.55 346.678C1026.75 348.631 1031.44 347.236 1033.02 345.388C1035.33 342.738 1035.91 339.774 1035.21 336.357Z" fill="#1EBFBF"/>
<path d="M891.325 364.703C877.361 362 879.163 364.703 862.045 364.703C851.126 365.532 840.873 367.406 828.71 364.703C819.982 362.763 805.736 367.856 783.663 364.703C761.59 361.549 768.347 365.154 745.824 361.1C723.3 357.046 720.597 375.965 736.814 378.218C753.031 380.47 839.972 381.37 944.03 381.821C1048.09 382.271 1054.4 371.009 1046.29 367.406C1038.18 363.802 1008.45 369.658 992.681 364.703C976.915 359.748 954.391 371.46 934.57 364.703C914.75 357.946 905.29 367.406 891.325 364.703Z" fill="#1EBFBF"/>
</g>
<path d="M891.932 300.138C891.932 338.074 861.179 368.827 823.244 368.827C785.308 368.827 754.555 338.074 754.555 300.138C754.555 262.203 785.308 231.45 823.244 231.45C841.535 231.45 858.156 238.599 870.466 250.257C883.686 262.777 891.932 280.494 891.932 300.138Z" stroke="#F9F9F9" stroke-width="1.32423"/>
<path d="M791.975 233.702C782.026 221.949 774.744 215.589 772.242 217.189C769.055 219.226 774.334 233.717 785.097 254.475M869.754 355.654C875.868 368.983 878.373 377.804 875.939 379.36C870.548 382.808 842.964 349.299 814.329 304.517C810.814 299.02 807.446 293.609 804.253 288.338" stroke="#16191C" stroke-width="1.66074" stroke-linecap="round"/>
<path d="M879.033 252.265C893.128 245.568 902.517 242.726 904.146 245.236C906.038 248.151 897.076 257.685 881.35 270.424M756.528 332.396C746.476 341.288 741.188 347.73 742.684 350.034C744.725 353.178 758.939 347.925 779.327 337.218M849.238 294.274C843.055 298.558 836.52 302.943 829.723 307.354C822.572 311.996 815.564 316.385 808.825 320.461" stroke="#16191C" stroke-width="1.66074" stroke-linecap="round"/>
<path d="M880.767 277.171C880.418 275.654 879.178 274.536 877.685 274.369C874.15 273.974 870.572 273.972 867.01 273.974C863.448 273.972 859.869 273.974 856.333 274.369C854.841 274.536 853.602 275.654 853.253 277.171C852.756 279.33 852.751 281.687 852.751 283.91C852.751 286.133 852.751 288.489 853.247 290.648C853.596 292.164 854.835 293.283 856.328 293.45C859.863 293.845 863.442 293.847 867.004 293.845C870.567 293.847 874.145 293.845 877.68 293.45C879.172 293.283 880.412 292.164 880.761 290.648C881.258 288.489 881.26 286.132 881.26 283.91C881.26 281.687 881.264 279.33 880.767 277.171ZM863.326 288.335C863.326 285.181 863.326 282.06 863.326 278.907C866.348 280.483 869.349 282.049 872.39 283.635C869.359 285.207 866.356 286.764 863.326 288.335Z" fill="#16191C"/>
<path d="M799.207 258.265H786.406C782.24 258.265 778.85 261.655 778.85 265.821V278.622C778.85 282.788 782.24 286.177 786.406 286.177H799.207C803.373 286.177 806.762 282.788 806.762 278.622V265.821C806.762 261.655 803.373 258.265 799.207 258.265ZM792.806 279.853C788.598 279.853 785.174 276.429 785.174 272.221C785.174 268.013 788.598 264.589 792.806 264.589C797.014 264.589 800.438 268.013 800.438 272.221C800.438 276.429 797.014 279.853 792.806 279.853ZM800.62 266.389C799.377 266.389 798.365 265.378 798.365 264.134C798.365 262.89 799.377 261.879 800.62 261.879C801.864 261.879 802.876 262.89 802.876 264.134C802.876 265.378 801.864 266.389 800.62 266.389ZM792.806 266.226C789.5 266.226 786.811 268.915 786.811 272.221C786.811 275.527 789.5 278.217 792.806 278.217C796.112 278.217 798.802 275.527 798.802 272.221C798.802 268.915 796.112 266.226 792.806 266.226ZM800.62 263.515C800.279 263.515 800.002 263.793 800.002 264.134C800.002 264.475 800.279 264.753 800.62 264.753C800.962 264.753 801.24 264.475 801.24 264.134C801.24 263.793 800.962 263.515 800.62 263.515Z" fill="#16191C"/>
<path d="M802.145 319.218H783.591C782.956 319.218 782.44 319.732 782.44 320.369V338.923C782.44 339.559 782.956 340.075 783.591 340.075H793.58V331.997H790.862V328.849H793.58V326.528C793.58 323.834 795.224 322.367 797.628 322.367C798.78 322.367 799.768 322.453 800.056 322.49V325.306L798.389 325.306C797.082 325.306 796.83 325.928 796.83 326.839V328.848H799.948L799.54 331.996H796.83V340.073H802.144C802.78 340.073 803.296 339.557 803.296 338.923V320.368C803.296 319.732 802.781 319.218 802.145 319.218Z" fill="#16191C"/>
<rect x="736.408" y="397.196" width="172.875" height="34.8038" rx="17.4019" fill="#16191C"/>
<path d="M777.462 407.978V410.021H774.099V420.598H771.568V410.021H768.205V407.978H777.462ZM784.949 410.437C785.709 410.437 786.384 410.606 786.974 410.943C787.565 411.269 788.023 411.757 788.348 412.408C788.686 413.047 788.855 413.818 788.855 414.722V420.598H786.323V415.065C786.323 414.27 786.125 413.661 785.727 413.239C785.329 412.805 784.787 412.589 784.1 412.589C783.4 412.589 782.846 412.805 782.436 413.239C782.038 413.661 781.84 414.27 781.84 415.065V420.598H779.308V407.219H781.84V411.829C782.165 411.395 782.599 411.058 783.141 410.817C783.684 410.564 784.286 410.437 784.949 410.437ZM800.573 415.373C800.573 415.734 800.549 416.06 800.5 416.349H793.178C793.238 417.072 793.491 417.639 793.937 418.049C794.383 418.458 794.932 418.663 795.583 418.663C796.523 418.663 797.192 418.26 797.59 417.452H800.32C800.03 418.416 799.476 419.212 798.656 419.839C797.837 420.453 796.83 420.761 795.637 420.761C794.673 420.761 793.805 420.55 793.033 420.128C792.274 419.694 791.677 419.085 791.244 418.302C790.822 417.518 790.611 416.614 790.611 415.59C790.611 414.553 790.822 413.643 791.244 412.86C791.665 412.076 792.256 411.474 793.015 411.052C793.775 410.63 794.649 410.419 795.637 410.419C796.589 410.419 797.439 410.624 798.186 411.034C798.946 411.443 799.53 412.028 799.94 412.787C800.362 413.535 800.573 414.396 800.573 415.373ZM797.951 414.65C797.939 413.999 797.704 413.48 797.246 413.095C796.788 412.697 796.228 412.498 795.565 412.498C794.938 412.498 794.408 412.691 793.974 413.077C793.552 413.45 793.293 413.975 793.196 414.65H797.951ZM809.26 407.978V420.598H806.728V407.978H809.26ZM817.311 410.437C818.504 410.437 819.468 410.817 820.204 411.576C820.939 412.323 821.307 413.372 821.307 414.722V420.598H818.775V415.065C818.775 414.27 818.577 413.661 818.179 413.239C817.781 412.805 817.239 412.589 816.552 412.589C815.852 412.589 815.298 412.805 814.888 413.239C814.49 413.661 814.292 414.27 814.292 415.065V420.598H811.76V410.582H814.292V411.829C814.629 411.395 815.057 411.058 815.575 410.817C816.106 410.564 816.684 410.437 817.311 410.437ZM826.661 412.661V417.506C826.661 417.844 826.739 418.091 826.896 418.248C827.064 418.392 827.342 418.464 827.727 418.464H828.903V420.598H827.312C825.178 420.598 824.111 419.561 824.111 417.488V412.661H822.918V410.582H824.111V408.105H826.661V410.582H828.903V412.661H826.661ZM840.034 415.373C840.034 415.734 840.01 416.06 839.962 416.349H832.64C832.7 417.072 832.953 417.639 833.399 418.049C833.845 418.458 834.393 418.663 835.044 418.663C835.984 418.663 836.653 418.26 837.051 417.452H839.781C839.492 418.416 838.937 419.212 838.118 419.839C837.298 420.453 836.292 420.761 835.098 420.761C834.134 420.761 833.266 420.55 832.495 420.128C831.736 419.694 831.139 419.085 830.705 418.302C830.283 417.518 830.072 416.614 830.072 415.59C830.072 414.553 830.283 413.643 830.705 412.86C831.127 412.076 831.718 411.474 832.477 411.052C833.236 410.63 834.11 410.419 835.098 410.419C836.051 410.419 836.9 410.624 837.648 411.034C838.407 411.443 838.992 412.028 839.401 412.787C839.823 413.535 840.034 414.396 840.034 415.373ZM837.413 414.65C837.401 413.999 837.166 413.48 836.708 413.095C836.25 412.697 835.689 412.498 835.026 412.498C834.399 412.498 833.869 412.691 833.435 413.077C833.013 413.45 832.754 413.975 832.658 414.65H837.413ZM844.413 412.137C844.738 411.606 845.16 411.19 845.679 410.889C846.209 410.588 846.812 410.437 847.487 410.437V413.095H846.818C846.022 413.095 845.419 413.282 845.01 413.655C844.612 414.029 844.413 414.68 844.413 415.608V420.598H841.882V410.582H844.413V412.137ZM854.742 410.437C855.935 410.437 856.9 410.817 857.635 411.576C858.37 412.323 858.738 413.372 858.738 414.722V420.598H856.206V415.065C856.206 414.27 856.008 413.661 855.61 413.239C855.212 412.805 854.67 412.589 853.983 412.589C853.284 412.589 852.729 412.805 852.319 413.239C851.922 413.661 851.723 414.27 851.723 415.065V420.598H849.191V410.582H851.723V411.829C852.06 411.395 852.488 411.058 853.006 410.817C853.537 410.564 854.115 410.437 854.742 410.437ZM870.456 415.373C870.456 415.734 870.432 416.06 870.384 416.349H863.061C863.121 417.072 863.375 417.639 863.821 418.049C864.266 418.458 864.815 418.663 865.466 418.663C866.406 418.663 867.075 418.26 867.473 417.452H870.203C869.913 418.416 869.359 419.212 868.539 419.839C867.72 420.453 866.713 420.761 865.52 420.761C864.556 420.761 863.688 420.55 862.917 420.128C862.157 419.694 861.561 419.085 861.127 418.302C860.705 417.518 860.494 416.614 860.494 415.59C860.494 414.553 860.705 413.643 861.127 412.86C861.548 412.076 862.139 411.474 862.898 411.052C863.658 410.63 864.532 410.419 865.52 410.419C866.472 410.419 867.322 410.624 868.069 411.034C868.829 411.443 869.413 412.028 869.823 412.787C870.245 413.535 870.456 414.396 870.456 415.373ZM867.834 414.65C867.822 413.999 867.587 413.48 867.129 413.095C866.671 412.697 866.111 412.498 865.448 412.498C864.821 412.498 864.291 412.691 863.857 413.077C863.435 413.45 863.176 413.975 863.079 414.65H867.834ZM875.25 412.661V417.506C875.25 417.844 875.329 418.091 875.485 418.248C875.654 418.392 875.931 418.464 876.317 418.464H877.492V420.598H875.901C873.768 420.598 872.701 419.561 872.701 417.488V412.661H871.508V410.582H872.701V408.105H875.25V410.582H877.492V412.661H875.25Z" fill="#F9F9F9"/>
<rect x="418.127" y="397" width="164" height="35" rx="17.5" fill="#16191C"/>
<path d="M443.362 407.88V409.923H438.101V413.16H442.133V415.166H438.101V420.5H435.57V407.88H443.362ZM449.605 420.663C448.64 420.663 447.773 420.452 447.001 420.03C446.23 419.596 445.621 418.987 445.175 418.204C444.741 417.42 444.524 416.516 444.524 415.492C444.524 414.467 444.747 413.563 445.193 412.78C445.651 411.996 446.272 411.394 447.055 410.972C447.839 410.538 448.713 410.321 449.677 410.321C450.641 410.321 451.515 410.538 452.299 410.972C453.082 411.394 453.697 411.996 454.143 412.78C454.601 413.563 454.83 414.467 454.83 415.492C454.83 416.516 454.595 417.42 454.125 418.204C453.667 418.987 453.04 419.596 452.244 420.03C451.461 420.452 450.581 420.663 449.605 420.663ZM449.605 418.457C450.063 418.457 450.491 418.348 450.888 418.132C451.298 417.903 451.624 417.565 451.865 417.119C452.106 416.673 452.226 416.131 452.226 415.492C452.226 414.54 451.973 413.81 451.467 413.304C450.973 412.786 450.364 412.527 449.641 412.527C448.918 412.527 448.309 412.786 447.815 413.304C447.333 413.81 447.092 414.54 447.092 415.492C447.092 416.444 447.327 417.179 447.797 417.698C448.279 418.204 448.882 418.457 449.605 418.457ZM459.218 412.039C459.543 411.508 459.965 411.092 460.483 410.791C461.014 410.49 461.616 410.339 462.291 410.339V412.997H461.622C460.827 412.997 460.224 413.184 459.814 413.557C459.417 413.931 459.218 414.582 459.218 415.51V420.5H456.687V410.484H459.218V412.039ZM477.882 410.484L474.953 420.5H472.223L470.396 413.503L468.57 420.5H465.822L462.875 410.484H465.443L467.214 418.113L469.131 410.484H471.807L473.687 418.095L475.459 410.484H477.882ZM478.6 415.456C478.6 414.443 478.799 413.545 479.197 412.762C479.607 411.978 480.155 411.376 480.842 410.954C481.541 410.532 482.319 410.321 483.174 410.321C483.922 410.321 484.573 410.472 485.127 410.773C485.694 411.074 486.146 411.454 486.483 411.912V410.484H489.032V420.5H486.483V419.036C486.158 419.506 485.706 419.897 485.127 420.211C484.561 420.512 483.904 420.663 483.156 420.663C482.313 420.663 481.541 420.446 480.842 420.012C480.155 419.578 479.607 418.969 479.197 418.186C478.799 417.39 478.6 416.48 478.6 415.456ZM486.483 415.492C486.483 414.877 486.363 414.353 486.121 413.919C485.88 413.473 485.555 413.135 485.145 412.906C484.735 412.665 484.295 412.545 483.825 412.545C483.355 412.545 482.921 412.659 482.524 412.888C482.126 413.117 481.8 413.455 481.547 413.901C481.306 414.335 481.186 414.853 481.186 415.456C481.186 416.058 481.306 416.589 481.547 417.047C481.8 417.493 482.126 417.836 482.524 418.077C482.933 418.318 483.367 418.439 483.825 418.439C484.295 418.439 484.735 418.324 485.145 418.095C485.555 417.854 485.88 417.517 486.121 417.083C486.363 416.637 486.483 416.107 486.483 415.492ZM494.036 412.039C494.361 411.508 494.783 411.092 495.301 410.791C495.832 410.49 496.434 410.339 497.109 410.339V412.997H496.44C495.645 412.997 495.042 413.184 494.632 413.557C494.235 413.931 494.036 414.582 494.036 415.51V420.5H491.504V410.484H494.036V412.039ZM498.163 415.456C498.163 414.443 498.362 413.545 498.76 412.762C499.17 411.978 499.724 411.376 500.423 410.954C501.122 410.532 501.9 410.321 502.756 410.321C503.406 410.321 504.027 410.466 504.618 410.755C505.208 411.032 505.678 411.406 506.028 411.876V407.121H508.595V420.5H506.028V419.017C505.715 419.512 505.275 419.909 504.708 420.211C504.142 420.512 503.485 420.663 502.737 420.663C501.894 420.663 501.122 420.446 500.423 420.012C499.724 419.578 499.17 418.969 498.76 418.186C498.362 417.39 498.163 416.48 498.163 415.456ZM506.046 415.492C506.046 414.877 505.926 414.353 505.684 413.919C505.443 413.473 505.118 413.135 504.708 412.906C504.298 412.665 503.858 412.545 503.388 412.545C502.918 412.545 502.484 412.659 502.087 412.888C501.689 413.117 501.363 413.455 501.11 413.901C500.869 414.335 500.749 414.853 500.749 415.456C500.749 416.058 500.869 416.589 501.11 417.047C501.363 417.493 501.689 417.836 502.087 418.077C502.496 418.318 502.93 418.439 503.388 418.439C503.858 418.439 504.298 418.324 504.708 418.095C505.118 417.854 505.443 417.517 505.684 417.083C505.926 416.637 506.046 416.107 506.046 415.492ZM517.907 411.93C518.232 411.472 518.678 411.092 519.245 410.791C519.823 410.478 520.48 410.321 521.215 410.321C522.071 410.321 522.843 410.532 523.53 410.954C524.229 411.376 524.777 411.978 525.175 412.762C525.585 413.533 525.79 414.431 525.79 415.456C525.79 416.48 525.585 417.39 525.175 418.186C524.777 418.969 524.229 419.578 523.53 420.012C522.843 420.446 522.071 420.663 521.215 420.663C520.48 420.663 519.829 420.512 519.263 420.211C518.708 419.909 518.256 419.53 517.907 419.072V425.273H515.376V410.484H517.907V411.93ZM523.204 415.456C523.204 414.853 523.078 414.335 522.825 413.901C522.583 413.455 522.258 413.117 521.848 412.888C521.45 412.659 521.017 412.545 520.546 412.545C520.088 412.545 519.654 412.665 519.245 412.906C518.847 413.135 518.521 413.473 518.268 413.919C518.027 414.365 517.907 414.889 517.907 415.492C517.907 416.095 518.027 416.619 518.268 417.065C518.521 417.511 518.847 417.854 519.245 418.095C519.654 418.324 520.088 418.439 520.546 418.439C521.017 418.439 521.45 418.318 521.848 418.077C522.258 417.836 522.583 417.493 522.825 417.047C523.078 416.601 523.204 416.07 523.204 415.456ZM530.16 412.039C530.486 411.508 530.907 411.092 531.426 410.791C531.956 410.49 532.559 410.339 533.234 410.339V412.997H532.565C531.769 412.997 531.167 413.184 530.757 413.557C530.359 413.931 530.16 414.582 530.16 415.51V420.5H527.629V410.484H530.16V412.039ZM539.386 420.663C538.422 420.663 537.554 420.452 536.783 420.03C536.011 419.596 535.403 418.987 534.957 418.204C534.523 417.42 534.306 416.516 534.306 415.492C534.306 414.467 534.529 413.563 534.975 412.78C535.433 411.996 536.054 411.394 536.837 410.972C537.62 410.538 538.494 410.321 539.459 410.321C540.423 410.321 541.297 410.538 542.08 410.972C542.864 411.394 543.478 411.996 543.924 412.78C544.382 413.563 544.611 414.467 544.611 415.492C544.611 416.516 544.376 417.42 543.906 418.204C543.448 418.987 542.821 419.596 542.026 420.03C541.242 420.452 540.363 420.663 539.386 420.663ZM539.386 418.457C539.844 418.457 540.272 418.348 540.67 418.132C541.08 417.903 541.405 417.565 541.646 417.119C541.887 416.673 542.008 416.131 542.008 415.492C542.008 414.54 541.755 413.81 541.248 413.304C540.754 412.786 540.146 412.527 539.422 412.527C538.699 412.527 538.091 412.786 537.596 413.304C537.114 413.81 536.873 414.54 536.873 415.492C536.873 416.444 537.108 417.179 537.578 417.698C538.06 418.204 538.663 418.457 539.386 418.457ZM552.001 420.5L549.939 417.39L548.113 420.5H545.401L548.674 415.474L545.365 410.484H548.222L550.265 413.575L552.109 410.484H554.821L551.53 415.474L554.857 420.5H552.001ZM565.814 410.484L559.613 425.237H556.919L559.089 420.247L555.075 410.484H557.913L560.499 417.481L563.12 410.484H565.814Z" fill="#F9F9F9"/>
<rect x="421.296" y="231.884" width="157.662" height="141.304" rx="14.3345" fill="#F9F9F9"/>
<rect x="431.357" y="243.379" width="137.54" height="33.5661" rx="5.37543" fill="#1EBFBF"/>
<rect x="440.729" y="257.335" width="49.6845" height="5.65445" rx="2.82723" fill="#16191C"/>
<circle cx="501.323" cy="260.162" r="3.34108" fill="#16191C"/>
<circle cx="513.279" cy="260.162" r="3.34108" fill="#FA3556"/>
<circle cx="557.118" cy="260.162" r="3.34108" fill="#F9F9F9"/>
<rect x="431.357" y="286.359" width="137.54" height="33.5661" rx="5.37543" fill="#1EBFBF"/>
<rect x="440.729" y="300.314" width="49.6845" height="5.65445" rx="2.82723" fill="#16191C"/>
<circle cx="501.323" cy="303.141" r="3.34108" fill="#16191C"/>
<circle cx="513.279" cy="303.141" r="3.34108" fill="#FA3556"/>
<circle cx="557.118" cy="303.141" r="3.34108" fill="#F9F9F9"/>
<rect x="431.357" y="329.338" width="137.54" height="33.5661" rx="5.37543" fill="#1EBFBF"/>
<rect x="440.729" y="343.294" width="49.6845" height="5.65445" rx="2.82723" fill="#16191C"/>
<circle cx="501.323" cy="346.122" r="3.34108" fill="#16191C"/>
<circle cx="513.279" cy="346.122" r="3.34108" fill="#FA3556"/>
<circle cx="557.118" cy="346.122" r="3.34108" fill="#F9F9F9"/>
<rect x="1064.74" y="252.5" width="145" height="35" rx="17.5" fill="#16191C"/>
<path d="M1085.49 276.127C1084.31 276.127 1083.23 275.849 1082.24 275.295C1081.25 274.74 1080.47 273.975 1079.89 272.999C1079.31 272.01 1079.02 270.895 1079.02 269.654C1079.02 268.425 1079.31 267.322 1079.89 266.345C1080.47 265.357 1081.25 264.586 1082.24 264.031C1083.23 263.477 1084.31 263.199 1085.49 263.199C1086.69 263.199 1087.77 263.477 1088.75 264.031C1089.74 264.586 1090.51 265.357 1091.08 266.345C1091.66 267.322 1091.95 268.425 1091.95 269.654C1091.95 270.895 1091.66 272.01 1091.08 272.999C1090.51 273.975 1089.74 274.74 1088.75 275.295C1087.76 275.849 1086.68 276.127 1085.49 276.127ZM1085.49 273.867C1086.25 273.867 1086.92 273.698 1087.5 273.36C1088.08 273.011 1088.53 272.517 1088.86 271.878C1089.18 271.239 1089.34 270.498 1089.34 269.654C1089.34 268.81 1089.18 268.075 1088.86 267.448C1088.53 266.809 1088.08 266.321 1087.5 265.984C1086.92 265.646 1086.25 265.477 1085.49 265.477C1084.73 265.477 1084.06 265.646 1083.47 265.984C1082.89 266.321 1082.44 266.809 1082.11 267.448C1081.79 268.075 1081.62 268.81 1081.62 269.654C1081.62 270.498 1081.79 271.239 1082.11 271.878C1082.44 272.517 1082.89 273.011 1083.47 273.36C1084.06 273.698 1084.73 273.867 1085.49 273.867ZM1096.36 267.539C1096.69 267.008 1097.11 266.592 1097.63 266.291C1098.16 265.99 1098.76 265.839 1099.44 265.839V268.497H1098.77C1097.97 268.497 1097.37 268.684 1096.96 269.057C1096.56 269.431 1096.36 270.082 1096.36 271.01V276H1093.83V265.984H1096.36V267.539ZM1102.42 264.79C1101.98 264.79 1101.61 264.652 1101.3 264.375C1101.01 264.085 1100.87 263.73 1100.87 263.308C1100.87 262.886 1101.01 262.536 1101.3 262.259C1101.61 261.97 1101.98 261.825 1102.42 261.825C1102.87 261.825 1103.24 261.97 1103.53 262.259C1103.83 262.536 1103.98 262.886 1103.98 263.308C1103.98 263.73 1103.83 264.085 1103.53 264.375C1103.24 264.652 1102.87 264.79 1102.42 264.79ZM1103.67 265.984V276H1101.14V265.984H1103.67ZM1110.1 265.821C1110.84 265.821 1111.5 265.972 1112.07 266.273C1112.63 266.562 1113.08 266.942 1113.41 267.412V265.984H1115.95V276.072C1115.95 277 1115.77 277.826 1115.39 278.549C1115.02 279.285 1114.46 279.863 1113.71 280.285C1112.97 280.719 1112.06 280.936 1111 280.936C1109.58 280.936 1108.41 280.604 1107.49 279.941C1106.59 279.278 1106.08 278.374 1105.96 277.229H1108.47C1108.6 277.687 1108.89 278.049 1109.32 278.314C1109.77 278.591 1110.3 278.73 1110.93 278.73C1111.66 278.73 1112.26 278.507 1112.72 278.061C1113.18 277.627 1113.41 276.964 1113.41 276.072V274.517C1113.08 274.988 1112.63 275.379 1112.05 275.693C1111.48 276.006 1110.83 276.163 1110.1 276.163C1109.25 276.163 1108.48 275.946 1107.78 275.512C1107.08 275.078 1106.53 274.469 1106.12 273.686C1105.72 272.89 1105.52 271.98 1105.52 270.956C1105.52 269.943 1105.72 269.045 1106.12 268.262C1106.53 267.478 1107.08 266.876 1107.76 266.454C1108.46 266.032 1109.24 265.821 1110.1 265.821ZM1113.41 270.992C1113.41 270.377 1113.28 269.853 1113.04 269.419C1112.8 268.973 1112.48 268.635 1112.07 268.406C1111.66 268.165 1111.22 268.045 1110.75 268.045C1110.28 268.045 1109.84 268.159 1109.45 268.388C1109.05 268.617 1108.72 268.955 1108.47 269.401C1108.23 269.835 1108.11 270.353 1108.11 270.956C1108.11 271.558 1108.23 272.089 1108.47 272.547C1108.72 272.993 1109.05 273.336 1109.45 273.577C1109.86 273.818 1110.29 273.939 1110.75 273.939C1111.22 273.939 1111.66 273.824 1112.07 273.595C1112.48 273.354 1112.8 273.017 1113.04 272.583C1113.28 272.137 1113.41 271.607 1113.41 270.992ZM1119.71 264.79C1119.26 264.79 1118.89 264.652 1118.59 264.375C1118.3 264.085 1118.16 263.73 1118.16 263.308C1118.16 262.886 1118.3 262.536 1118.59 262.259C1118.89 261.97 1119.26 261.825 1119.71 261.825C1120.16 261.825 1120.52 261.97 1120.81 262.259C1121.11 262.536 1121.27 262.886 1121.27 263.308C1121.27 263.73 1121.11 264.085 1120.81 264.375C1120.52 264.652 1120.16 264.79 1119.71 264.79ZM1120.96 265.984V276H1118.43V265.984H1120.96ZM1129.01 265.839C1130.2 265.839 1131.17 266.219 1131.9 266.978C1132.64 267.725 1133 268.774 1133 270.124V276H1130.47V270.468C1130.47 269.672 1130.27 269.063 1129.88 268.641C1129.48 268.208 1128.94 267.991 1128.25 267.991C1127.55 267.991 1127 268.208 1126.59 268.641C1126.19 269.063 1125.99 269.672 1125.99 270.468V276H1123.46V265.984H1125.99V267.231C1126.33 266.797 1126.76 266.46 1127.27 266.219C1127.8 265.966 1128.38 265.839 1129.01 265.839ZM1143.55 276.163C1142.73 276.163 1142 276.018 1141.35 275.729C1140.7 275.427 1140.18 275.024 1139.79 274.517C1139.42 274.011 1139.21 273.451 1139.18 272.836H1141.73C1141.77 273.222 1141.96 273.541 1142.29 273.794C1142.62 274.047 1143.04 274.174 1143.53 274.174C1144.02 274.174 1144.39 274.078 1144.66 273.885C1144.93 273.692 1145.07 273.445 1145.07 273.143C1145.07 272.818 1144.9 272.577 1144.57 272.42C1144.24 272.251 1143.72 272.071 1142.99 271.878C1142.25 271.697 1141.63 271.51 1141.15 271.317C1140.68 271.124 1140.27 270.829 1139.92 270.431C1139.58 270.034 1139.41 269.497 1139.41 268.822C1139.41 268.268 1139.57 267.762 1139.88 267.304C1140.21 266.846 1140.67 266.484 1141.26 266.219C1141.86 265.954 1142.56 265.821 1143.37 265.821C1144.57 265.821 1145.52 266.122 1146.23 266.725C1146.94 267.316 1147.33 268.117 1147.4 269.13H1144.98C1144.94 268.732 1144.78 268.418 1144.47 268.189C1144.19 267.948 1143.79 267.828 1143.3 267.828C1142.84 267.828 1142.49 267.912 1142.23 268.081C1141.99 268.25 1141.87 268.485 1141.87 268.786C1141.87 269.124 1142.04 269.383 1142.38 269.564C1142.72 269.732 1143.24 269.907 1143.95 270.088C1144.67 270.269 1145.27 270.455 1145.74 270.648C1146.21 270.841 1146.61 271.143 1146.95 271.552C1147.3 271.95 1147.48 272.48 1147.49 273.143C1147.49 273.722 1147.33 274.24 1147.01 274.698C1146.69 275.156 1146.23 275.518 1145.63 275.783C1145.04 276.036 1144.35 276.163 1143.55 276.163ZM1158.88 270.775C1158.88 271.137 1158.86 271.462 1158.81 271.751H1151.49C1151.55 272.474 1151.8 273.041 1152.25 273.451C1152.69 273.861 1153.24 274.065 1153.89 274.065C1154.83 274.065 1155.5 273.662 1155.9 272.854H1158.63C1158.34 273.818 1157.79 274.614 1156.97 275.241C1156.15 275.855 1155.14 276.163 1153.95 276.163C1152.98 276.163 1152.12 275.952 1151.34 275.53C1150.58 275.096 1149.99 274.487 1149.55 273.704C1149.13 272.92 1148.92 272.016 1148.92 270.992C1148.92 269.955 1149.13 269.045 1149.55 268.262C1149.98 267.478 1150.57 266.876 1151.33 266.454C1152.09 266.032 1152.96 265.821 1153.95 265.821C1154.9 265.821 1155.75 266.026 1156.5 266.436C1157.26 266.846 1157.84 267.43 1158.25 268.189C1158.67 268.937 1158.88 269.799 1158.88 270.775ZM1156.26 270.052C1156.25 269.401 1156.01 268.883 1155.56 268.497C1155.1 268.099 1154.54 267.9 1153.88 267.9C1153.25 267.9 1152.72 268.093 1152.28 268.479C1151.86 268.852 1151.6 269.377 1151.51 270.052H1156.26ZM1163.26 267.539C1163.59 267.008 1164.01 266.592 1164.53 266.291C1165.06 265.99 1165.66 265.839 1166.34 265.839V268.497H1165.67C1164.87 268.497 1164.27 268.684 1163.86 269.057C1163.46 269.431 1163.26 270.082 1163.26 271.01V276H1160.73V265.984H1163.26V267.539ZM1172.22 273.668L1174.75 265.984H1177.44L1173.74 276H1170.66L1166.97 265.984H1169.69L1172.22 273.668ZM1188.17 270.775C1188.17 271.137 1188.15 271.462 1188.1 271.751H1180.78C1180.84 272.474 1181.09 273.041 1181.54 273.451C1181.99 273.861 1182.53 274.065 1183.18 274.065C1184.12 274.065 1184.79 273.662 1185.19 272.854H1187.92C1187.63 273.818 1187.08 274.614 1186.26 275.241C1185.44 275.855 1184.43 276.163 1183.24 276.163C1182.27 276.163 1181.41 275.952 1180.64 275.53C1179.88 275.096 1179.28 274.487 1178.85 273.704C1178.42 272.92 1178.21 272.016 1178.21 270.992C1178.21 269.955 1178.42 269.045 1178.85 268.262C1179.27 267.478 1179.86 266.876 1180.62 266.454C1181.38 266.032 1182.25 265.821 1183.24 265.821C1184.19 265.821 1185.04 266.026 1185.79 266.436C1186.55 266.846 1187.13 267.43 1187.54 268.189C1187.96 268.937 1188.17 269.799 1188.17 270.775ZM1185.55 270.052C1185.54 269.401 1185.31 268.883 1184.85 268.497C1184.39 268.099 1183.83 267.9 1183.17 267.9C1182.54 267.9 1182.01 268.093 1181.58 268.479C1181.15 268.852 1180.89 269.377 1180.8 270.052H1185.55ZM1192.55 267.539C1192.88 267.008 1193.3 266.592 1193.82 266.291C1194.35 265.99 1194.95 265.839 1195.63 265.839V268.497H1194.96C1194.16 268.497 1193.56 268.684 1193.15 269.057C1192.75 269.431 1192.55 270.082 1192.55 271.01V276H1190.02V265.984H1192.55V267.539Z" fill="#F9F9F9"/>
<rect x="1072.13" y="115.804" width="130.206" height="116.696" rx="14.3345" fill="#F9F9F9"/>
<rect x="1080.44" y="125.297" width="113.588" height="27.7207" rx="5.37543" fill="#1EBFBF"/>
<rect x="1088.18" y="136.823" width="41.0321" height="4.66976" rx="2.33488" fill="#16191C"/>
<circle cx="1138.22" cy="139.157" r="2.75924" fill="#16191C"/>
<circle cx="1148.1" cy="139.157" r="2.75924" fill="#FA3556"/>
<circle cx="1184.3" cy="139.157" r="2.75924" fill="#F9F9F9"/>
<rect x="1080.44" y="160.792" width="113.588" height="27.7207" rx="5.37543" fill="#1EBFBF"/>
<rect x="1088.18" y="172.317" width="41.0321" height="4.66976" rx="2.33488" fill="#16191C"/>
<circle cx="1138.22" cy="174.652" r="2.75924" fill="#16191C"/>
<circle cx="1148.1" cy="174.652" r="2.75924" fill="#FA3556"/>
<circle cx="1184.3" cy="174.652" r="2.75924" fill="#F9F9F9"/>
<rect x="1080.44" y="196.287" width="113.588" height="27.7207" rx="5.37543" fill="#1EBFBF"/>
<rect x="1088.18" y="207.812" width="41.0321" height="4.66976" rx="2.33488" fill="#16191C"/>
<circle cx="1138.22" cy="210.148" r="2.75924" fill="#16191C"/>
<circle cx="1148.1" cy="210.148" r="2.75924" fill="#FA3556"/>
<circle cx="1184.3" cy="210.148" r="2.75924" fill="#F9F9F9"/>
<rect x="1064.74" y="487.196" width="145" height="35" rx="17.5" fill="#16191C"/>
<path d="M1085.49 510.823C1084.31 510.823 1083.23 510.546 1082.24 509.991C1081.25 509.437 1080.47 508.671 1079.89 507.695C1079.31 506.707 1079.02 505.592 1079.02 504.35C1079.02 503.121 1079.31 502.018 1079.89 501.042C1080.47 500.053 1081.25 499.282 1082.24 498.727C1083.23 498.173 1084.31 497.896 1085.49 497.896C1086.69 497.896 1087.77 498.173 1088.75 498.727C1089.74 499.282 1090.51 500.053 1091.08 501.042C1091.66 502.018 1091.95 503.121 1091.95 504.35C1091.95 505.592 1091.66 506.707 1091.08 507.695C1090.51 508.671 1089.74 509.437 1088.75 509.991C1087.76 510.546 1086.68 510.823 1085.49 510.823ZM1085.49 508.563C1086.25 508.563 1086.92 508.394 1087.5 508.057C1088.08 507.707 1088.53 507.213 1088.86 506.574C1089.18 505.935 1089.34 505.194 1089.34 504.35C1089.34 503.507 1089.18 502.771 1088.86 502.144C1088.53 501.506 1088.08 501.018 1087.5 500.68C1086.92 500.343 1086.25 500.174 1085.49 500.174C1084.73 500.174 1084.06 500.343 1083.47 500.68C1082.89 501.018 1082.44 501.506 1082.11 502.144C1081.79 502.771 1081.62 503.507 1081.62 504.35C1081.62 505.194 1081.79 505.935 1082.11 506.574C1082.44 507.213 1082.89 507.707 1083.47 508.057C1084.06 508.394 1084.73 508.563 1085.49 508.563ZM1096.36 502.235C1096.69 501.705 1097.11 501.289 1097.63 500.987C1098.16 500.686 1098.76 500.535 1099.44 500.535V503.193H1098.77C1097.97 503.193 1097.37 503.38 1096.96 503.754C1096.56 504.127 1096.36 504.778 1096.36 505.706V510.696H1093.83V500.68H1096.36V502.235ZM1102.42 499.487C1101.98 499.487 1101.61 499.348 1101.3 499.071C1101.01 498.782 1100.87 498.426 1100.87 498.004C1100.87 497.582 1101.01 497.233 1101.3 496.956C1101.61 496.666 1101.98 496.522 1102.42 496.522C1102.87 496.522 1103.24 496.666 1103.53 496.956C1103.83 497.233 1103.98 497.582 1103.98 498.004C1103.98 498.426 1103.83 498.782 1103.53 499.071C1103.24 499.348 1102.87 499.487 1102.42 499.487ZM1103.67 500.68V510.696H1101.14V500.68H1103.67ZM1110.1 500.517C1110.84 500.517 1111.5 500.668 1112.07 500.969C1112.63 501.259 1113.08 501.638 1113.41 502.108V500.68H1115.95V510.769C1115.95 511.697 1115.77 512.522 1115.39 513.246C1115.02 513.981 1114.46 514.559 1113.71 514.981C1112.97 515.415 1112.06 515.632 1111 515.632C1109.58 515.632 1108.41 515.301 1107.49 514.638C1106.59 513.975 1106.08 513.071 1105.96 511.926H1108.47C1108.6 512.384 1108.89 512.745 1109.32 513.011C1109.77 513.288 1110.3 513.426 1110.93 513.426C1111.66 513.426 1112.26 513.203 1112.72 512.757C1113.18 512.323 1113.41 511.661 1113.41 510.769V509.214C1113.08 509.684 1112.63 510.076 1112.05 510.389C1111.48 510.702 1110.83 510.859 1110.1 510.859C1109.25 510.859 1108.48 510.642 1107.78 510.208C1107.08 509.774 1106.53 509.166 1106.12 508.382C1105.72 507.587 1105.52 506.677 1105.52 505.652C1105.52 504.64 1105.72 503.742 1106.12 502.958C1106.53 502.175 1107.08 501.572 1107.76 501.15C1108.46 500.728 1109.24 500.517 1110.1 500.517ZM1113.41 505.688C1113.41 505.073 1113.28 504.549 1113.04 504.115C1112.8 503.669 1112.48 503.332 1112.07 503.103C1111.66 502.862 1111.22 502.741 1110.75 502.741C1110.28 502.741 1109.84 502.856 1109.45 503.085C1109.05 503.314 1108.72 503.651 1108.47 504.097C1108.23 504.531 1108.11 505.049 1108.11 505.652C1108.11 506.255 1108.23 506.785 1108.47 507.243C1108.72 507.689 1109.05 508.033 1109.45 508.274C1109.86 508.515 1110.29 508.635 1110.75 508.635C1111.22 508.635 1111.66 508.521 1112.07 508.292C1112.48 508.051 1112.8 507.713 1113.04 507.279C1113.28 506.833 1113.41 506.303 1113.41 505.688ZM1119.71 499.487C1119.26 499.487 1118.89 499.348 1118.59 499.071C1118.3 498.782 1118.16 498.426 1118.16 498.004C1118.16 497.582 1118.3 497.233 1118.59 496.956C1118.89 496.666 1119.26 496.522 1119.71 496.522C1120.16 496.522 1120.52 496.666 1120.81 496.956C1121.11 497.233 1121.27 497.582 1121.27 498.004C1121.27 498.426 1121.11 498.782 1120.81 499.071C1120.52 499.348 1120.16 499.487 1119.71 499.487ZM1120.96 500.68V510.696H1118.43V500.68H1120.96ZM1129.01 500.535C1130.2 500.535 1131.17 500.915 1131.9 501.674C1132.64 502.422 1133 503.47 1133 504.82V510.696H1130.47V505.164C1130.47 504.368 1130.27 503.76 1129.88 503.338C1129.48 502.904 1128.94 502.687 1128.25 502.687C1127.55 502.687 1127 502.904 1126.59 503.338C1126.19 503.76 1125.99 504.368 1125.99 505.164V510.696H1123.46V500.68H1125.99V501.928C1126.33 501.494 1126.76 501.156 1127.27 500.915C1127.8 500.662 1128.38 500.535 1129.01 500.535ZM1143.55 510.859C1142.73 510.859 1142 510.714 1141.35 510.425C1140.7 510.124 1140.18 509.72 1139.79 509.214C1139.42 508.707 1139.21 508.147 1139.18 507.532H1141.73C1141.77 507.918 1141.96 508.237 1142.29 508.491C1142.62 508.744 1143.04 508.87 1143.53 508.87C1144.02 508.87 1144.39 508.774 1144.66 508.581C1144.93 508.388 1145.07 508.141 1145.07 507.84C1145.07 507.514 1144.9 507.273 1144.57 507.116C1144.24 506.948 1143.72 506.767 1142.99 506.574C1142.25 506.393 1141.63 506.206 1141.15 506.014C1140.68 505.821 1140.27 505.525 1139.92 505.128C1139.58 504.73 1139.41 504.194 1139.41 503.519C1139.41 502.964 1139.57 502.458 1139.88 502C1140.21 501.542 1140.67 501.18 1141.26 500.915C1141.86 500.65 1142.56 500.517 1143.37 500.517C1144.57 500.517 1145.52 500.819 1146.23 501.421C1146.94 502.012 1147.33 502.813 1147.4 503.826H1144.98C1144.94 503.428 1144.78 503.115 1144.47 502.886C1144.19 502.645 1143.79 502.524 1143.3 502.524C1142.84 502.524 1142.49 502.609 1142.23 502.777C1141.99 502.946 1141.87 503.181 1141.87 503.482C1141.87 503.82 1142.04 504.079 1142.38 504.26C1142.72 504.429 1143.24 504.603 1143.95 504.784C1144.67 504.965 1145.27 505.152 1145.74 505.345C1146.21 505.537 1146.61 505.839 1146.95 506.249C1147.3 506.646 1147.48 507.177 1147.49 507.84C1147.49 508.418 1147.33 508.937 1147.01 509.395C1146.69 509.853 1146.23 510.214 1145.63 510.479C1145.04 510.732 1144.35 510.859 1143.55 510.859ZM1158.88 505.471C1158.88 505.833 1158.86 506.158 1158.81 506.448H1151.49C1151.55 507.171 1151.8 507.737 1152.25 508.147C1152.69 508.557 1153.24 508.762 1153.89 508.762C1154.83 508.762 1155.5 508.358 1155.9 507.55H1158.63C1158.34 508.515 1157.79 509.31 1156.97 509.937C1156.15 510.552 1155.14 510.859 1153.95 510.859C1152.98 510.859 1152.12 510.648 1151.34 510.226C1150.58 509.792 1149.99 509.184 1149.55 508.4C1149.13 507.617 1148.92 506.713 1148.92 505.688C1148.92 504.652 1149.13 503.742 1149.55 502.958C1149.98 502.175 1150.57 501.572 1151.33 501.15C1152.09 500.728 1152.96 500.517 1153.95 500.517C1154.9 500.517 1155.75 500.722 1156.5 501.132C1157.26 501.542 1157.84 502.126 1158.25 502.886C1158.67 503.633 1158.88 504.495 1158.88 505.471ZM1156.26 504.748C1156.25 504.097 1156.01 503.579 1155.56 503.193C1155.1 502.795 1154.54 502.596 1153.88 502.596C1153.25 502.596 1152.72 502.789 1152.28 503.175C1151.86 503.549 1151.6 504.073 1151.51 504.748H1156.26ZM1163.26 502.235C1163.59 501.705 1164.01 501.289 1164.53 500.987C1165.06 500.686 1165.66 500.535 1166.34 500.535V503.193H1165.67C1164.87 503.193 1164.27 503.38 1163.86 503.754C1163.46 504.127 1163.26 504.778 1163.26 505.706V510.696H1160.73V500.68H1163.26V502.235ZM1172.22 508.364L1174.75 500.68H1177.44L1173.74 510.696H1170.66L1166.97 500.68H1169.69L1172.22 508.364ZM1188.17 505.471C1188.17 505.833 1188.15 506.158 1188.1 506.448H1180.78C1180.84 507.171 1181.09 507.737 1181.54 508.147C1181.99 508.557 1182.53 508.762 1183.18 508.762C1184.12 508.762 1184.79 508.358 1185.19 507.55H1187.92C1187.63 508.515 1187.08 509.31 1186.26 509.937C1185.44 510.552 1184.43 510.859 1183.24 510.859C1182.27 510.859 1181.41 510.648 1180.64 510.226C1179.88 509.792 1179.28 509.184 1178.85 508.4C1178.42 507.617 1178.21 506.713 1178.21 505.688C1178.21 504.652 1178.42 503.742 1178.85 502.958C1179.27 502.175 1179.86 501.572 1180.62 501.15C1181.38 500.728 1182.25 500.517 1183.24 500.517C1184.19 500.517 1185.04 500.722 1185.79 501.132C1186.55 501.542 1187.13 502.126 1187.54 502.886C1187.96 503.633 1188.17 504.495 1188.17 505.471ZM1185.55 504.748C1185.54 504.097 1185.31 503.579 1184.85 503.193C1184.39 502.795 1183.83 502.596 1183.17 502.596C1182.54 502.596 1182.01 502.789 1181.58 503.175C1181.15 503.549 1180.89 504.073 1180.8 504.748H1185.55ZM1192.55 502.235C1192.88 501.705 1193.3 501.289 1193.82 500.987C1194.35 500.686 1194.95 500.535 1195.63 500.535V503.193H1194.96C1194.16 503.193 1193.56 503.38 1193.15 503.754C1192.75 504.127 1192.55 504.778 1192.55 505.706V510.696H1190.02V500.68H1192.55V502.235Z" fill="#F9F9F9"/>
<rect x="1072.13" y="350.5" width="130.206" height="116.696" rx="14.3345" fill="#F9F9F9"/>
<rect x="1080.44" y="359.993" width="113.588" height="27.7207" rx="5.37543" fill="#1EBFBF"/>
<rect x="1088.18" y="371.519" width="41.0321" height="4.66976" rx="2.33488" fill="#16191C"/>
<circle cx="1138.22" cy="373.853" r="2.75924" fill="#16191C"/>
<circle cx="1148.1" cy="373.853" r="2.75924" fill="#FA3556"/>
<circle cx="1184.3" cy="373.853" r="2.75924" fill="#F9F9F9"/>
<rect x="1080.44" y="395.488" width="113.588" height="27.7207" rx="5.37543" fill="#1EBFBF"/>
<rect x="1088.18" y="407.013" width="41.0321" height="4.66976" rx="2.33488" fill="#16191C"/>
<circle cx="1138.22" cy="409.348" r="2.75924" fill="#16191C"/>
<circle cx="1148.1" cy="409.348" r="2.75924" fill="#FA3556"/>
<circle cx="1184.3" cy="409.348" r="2.75924" fill="#F9F9F9"/>
<rect x="1080.44" y="430.983" width="113.588" height="27.7207" rx="5.37543" fill="#1EBFBF"/>
<rect x="1088.18" y="442.509" width="41.0321" height="4.66976" rx="2.33488" fill="#16191C"/>
<circle cx="1138.22" cy="444.844" r="2.75924" fill="#16191C"/>
<circle cx="1148.1" cy="444.844" r="2.75924" fill="#FA3556"/>
<circle cx="1184.3" cy="444.844" r="2.75924" fill="#F9F9F9"/>
<path d="M105.94 55.8742C105.94 52.1562 108.954 49.1422 112.672 49.1422H245.437C249.155 49.1422 252.169 52.1562 252.169 55.8742V135.879H105.94V55.8742Z" fill="#F9F9F9"/>
<path d="M94.2635 135.879H263.845V137.487C263.845 141.205 260.831 144.219 257.113 144.219H100.995C97.2775 144.219 94.2635 141.205 94.2635 137.487V135.879Z" fill="#16191C"/>
<path d="M162.652 137.547V137.547C162.652 139.389 164.146 140.883 165.988 140.883H192.12C193.963 140.883 195.456 139.389 195.456 137.547V137.547" stroke="#F9F9F9" stroke-width="0.673196" stroke-linecap="round"/>
<mask id="mask1_648_549" style="mask-type:alpha" maskUnits="userSpaceOnUse" x="108" y="52" width="142" height="81">
<rect x="108.719" y="52.238" width="140.53" height="80.3031" rx="3.36598" fill="#1EBFBF"/>
</mask>
<g mask="url(#mask1_648_549)">
<rect x="108.719" y="52.238" width="140.53" height="80.3031" fill="#1EBFBF"/>
<path d="M185.355 76.6125C186.15 76.6338 186.9 76.6492 187.506 76.7585C188.774 77.0872 189.969 77.7912 190.59 79.2002C190.59 79.2002 190.73 79.4508 190.831 80.1729C190.933 80.895 191.087 82.8987 191.087 82.8987C191.3 86.2264 191.323 89.6873 191.357 92.9487C191.302 94.2252 190.953 95.4245 190.423 96.5209C189.127 99.2013 186.753 101.267 184.968 102.341C180.55 104.63 176.277 106.669 172.66 108.311C168.832 109.771 167.094 108.305 166.517 106.566C166.401 106.092 166.36 105.605 166.378 105.154C166.378 105.154 166.413 104.075 166.678 102.303C166.943 100.53 168.895 87.7681 170.992 81.2258C171.521 79.7143 173.493 76.8761 178.186 76.6125H185.355Z" fill="#16191C"/>
<path d="M184.572 82.5844C184.912 82.5844 185.188 82.8658 185.188 83.213V85.4131C185.188 85.7603 184.912 86.0417 184.572 86.0417H184.263C182.219 86.0417 180.562 87.7304 180.562 89.8134V93.1922C180.562 97.1847 177.386 100.421 173.468 100.421H173.16C172.819 100.421 172.543 100.14 172.543 99.7927L172.543 97.5925C172.543 97.2453 172.819 96.9639 173.16 96.9639H173.468C175.512 96.9639 177.169 95.2753 177.169 93.1922V89.8134C177.169 85.8209 180.345 82.5844 184.263 82.5844L184.572 82.5844Z" fill="#1EBFBF"/>
<circle opacity="0.3" cx="179.226" cy="92.5101" r="69.4609" stroke="#16191C" stroke-width="0.830371"/>
<circle opacity="0.15" cx="179.226" cy="92.5095" r="88.6041" stroke="#1EBFBF" stroke-opacity="0.15" stroke-width="0.830371"/>
<circle opacity="0.6" cx="179.227" cy="92.5084" r="50.3177" stroke="#16191C" stroke-width="0.830371"/>
<circle cx="178.992" cy="92.2747" r="30.9408" stroke="#16191C" stroke-width="0.830371"/>
</g>
<rect x="121.448" y="160.789" width="114.38" height="34.8038" rx="17.4019" fill="#16191C"/>
<path d="M153.293 171.571C154.619 171.571 155.782 171.831 156.783 172.349C157.795 172.867 158.573 173.608 159.115 174.573C159.67 175.525 159.947 176.634 159.947 177.899C159.947 179.165 159.67 180.274 159.115 181.226C158.573 182.166 157.795 182.895 156.783 183.414C155.782 183.932 154.619 184.191 153.293 184.191H148.882V171.571H153.293ZM153.203 182.04C154.529 182.04 155.553 181.678 156.277 180.955C157 180.232 157.361 179.213 157.361 177.899C157.361 176.586 157 175.561 156.277 174.826C155.553 174.078 154.529 173.705 153.203 173.705H151.413V182.04H153.203ZM171.153 178.966C171.153 179.328 171.129 179.653 171.08 179.942H163.758C163.818 180.666 164.071 181.232 164.517 181.642C164.963 182.052 165.512 182.257 166.163 182.257C167.103 182.257 167.772 181.853 168.17 181.045H170.9C170.61 182.01 170.056 182.805 169.236 183.432C168.417 184.047 167.41 184.354 166.217 184.354C165.253 184.354 164.385 184.143 163.613 183.721C162.854 183.287 162.257 182.678 161.823 181.895C161.402 181.112 161.191 180.208 161.191 179.183C161.191 178.146 161.402 177.236 161.823 176.453C162.245 175.67 162.836 175.067 163.595 174.645C164.355 174.223 165.229 174.012 166.217 174.012C167.169 174.012 168.019 174.217 168.766 174.627C169.526 175.037 170.11 175.621 170.52 176.381C170.942 177.128 171.153 177.99 171.153 178.966ZM168.531 178.243C168.519 177.592 168.284 177.074 167.826 176.688C167.368 176.29 166.808 176.091 166.145 176.091C165.518 176.091 164.987 176.284 164.554 176.67C164.132 177.044 163.873 177.568 163.776 178.243H168.531ZM177.177 181.859L179.708 174.175H182.402L178.695 184.191H175.622L171.934 174.175H174.646L177.177 181.859ZM185.107 172.982C184.661 172.982 184.288 172.843 183.986 172.566C183.697 172.277 183.552 171.921 183.552 171.499C183.552 171.077 183.697 170.728 183.986 170.45C184.288 170.161 184.661 170.017 185.107 170.017C185.553 170.017 185.921 170.161 186.21 170.45C186.511 170.728 186.662 171.077 186.662 171.499C186.662 171.921 186.511 172.277 186.21 172.566C185.921 172.843 185.553 172.982 185.107 172.982ZM186.355 174.175V184.191H183.823V174.175H186.355ZM188.205 179.183C188.205 178.146 188.416 177.242 188.837 176.471C189.259 175.688 189.844 175.085 190.591 174.663C191.338 174.229 192.194 174.012 193.158 174.012C194.4 174.012 195.425 174.326 196.232 174.952C197.052 175.567 197.6 176.435 197.877 177.556H195.147C195.003 177.122 194.756 176.784 194.406 176.543C194.069 176.29 193.647 176.164 193.14 176.164C192.417 176.164 191.845 176.429 191.423 176.959C191.001 177.477 190.79 178.219 190.79 179.183C190.79 180.135 191.001 180.877 191.423 181.407C191.845 181.925 192.417 182.184 193.14 182.184C194.165 182.184 194.834 181.726 195.147 180.81H197.877C197.6 181.895 197.052 182.757 196.232 183.396C195.412 184.034 194.388 184.354 193.158 184.354C192.194 184.354 191.338 184.143 190.591 183.721C189.844 183.287 189.259 182.685 188.837 181.913C188.416 181.13 188.205 180.22 188.205 179.183ZM209.043 178.966C209.043 179.328 209.019 179.653 208.971 179.942H201.648C201.708 180.666 201.962 181.232 202.407 181.642C202.853 182.052 203.402 182.257 204.053 182.257C204.993 182.257 205.662 181.853 206.06 181.045H208.79C208.5 182.01 207.946 182.805 207.126 183.432C206.307 184.047 205.3 184.354 204.107 184.354C203.143 184.354 202.275 184.143 201.504 183.721C200.744 183.287 200.148 182.678 199.714 181.895C199.292 181.112 199.081 180.208 199.081 179.183C199.081 178.146 199.292 177.236 199.714 176.453C200.135 175.67 200.726 175.067 201.485 174.645C202.245 174.223 203.119 174.012 204.107 174.012C205.059 174.012 205.909 174.217 206.656 174.627C207.416 175.037 208 175.621 208.41 176.381C208.832 177.128 209.043 177.99 209.043 178.966ZM206.421 178.243C206.409 177.592 206.174 177.074 205.716 176.688C205.258 176.29 204.698 176.091 204.035 176.091C203.408 176.091 202.878 176.284 202.444 176.67C202.022 177.044 201.763 177.568 201.666 178.243H206.421Z" fill="#F9F9F9"/>
<path d="M105.94 252.507C105.94 248.789 108.954 245.775 112.672 245.775H245.437C249.155 245.775 252.169 248.789 252.169 252.507V332.511H105.94V252.507Z" fill="#F9F9F9"/>
<path d="M94.2635 332.511H263.845V334.119C263.845 337.837 260.831 340.851 257.113 340.851H100.995C97.2775 340.851 94.2635 337.837 94.2635 334.119V332.511Z" fill="#16191C"/>
<path d="M162.652 334.179V334.179C162.652 336.022 164.146 337.515 165.988 337.515H192.12C193.963 337.515 195.456 336.022 195.456 334.179V334.179" stroke="#F9F9F9" stroke-width="0.673196" stroke-linecap="round"/>
<mask id="mask2_648_549" style="mask-type:alpha" maskUnits="userSpaceOnUse" x="108" y="248" width="142" height="82">
<rect x="108.719" y="248.87" width="140.53" height="80.3031" rx="3.36598" fill="#1EBFBF"/>
</mask>
<g mask="url(#mask2_648_549)">
<rect x="108.719" y="248.87" width="140.53" height="80.3031" fill="#1EBFBF"/>
<path d="M185.355 273.245C186.15 273.266 186.9 273.282 187.506 273.391C188.774 273.72 189.969 274.424 190.59 275.833C190.59 275.833 190.73 276.083 190.831 276.805C190.933 277.527 191.087 279.531 191.087 279.531C191.3 282.859 191.323 286.32 191.357 289.581C191.302 290.858 190.953 292.057 190.423 293.153C189.127 295.834 186.753 297.899 184.968 298.974C180.55 301.263 176.277 303.301 172.66 304.943C168.832 306.403 167.094 304.938 166.517 303.198C166.401 302.724 166.36 302.237 166.378 301.787C166.378 301.787 166.413 300.708 166.678 298.935C166.943 297.163 168.895 284.401 170.992 277.858C171.521 276.347 173.493 273.509 178.186 273.245H185.355Z" fill="#16191C"/>
<path d="M184.572 279.217C184.912 279.217 185.188 279.498 185.188 279.845V282.046C185.188 282.393 184.912 282.674 184.572 282.674H184.263C182.219 282.674 180.562 284.363 180.562 286.446V289.825C180.562 293.817 177.386 297.054 173.468 297.054H173.16C172.819 297.054 172.543 296.772 172.543 296.425L172.543 294.225C172.543 293.878 172.819 293.596 173.16 293.596H173.468C175.512 293.596 177.169 291.908 177.169 289.825V286.446C177.169 282.453 180.345 279.217 184.263 279.217L184.572 279.217Z" fill="#1EBFBF"/>
<circle opacity="0.3" cx="179.226" cy="289.143" r="69.4609" stroke="#16191C" stroke-width="0.830371"/>
<circle opacity="0.15" cx="179.226" cy="289.142" r="88.6041" stroke="#1EBFBF" stroke-opacity="0.15" stroke-width="0.830371"/>
<circle opacity="0.6" cx="179.227" cy="289.141" r="50.3177" stroke="#16191C" stroke-width="0.830371"/>
<circle cx="178.992" cy="288.907" r="30.9408" stroke="#16191C" stroke-width="0.830371"/>
</g>
<rect x="121.448" y="357.422" width="114.38" height="34.8038" rx="17.4019" fill="#16191C"/>
<path d="M153.293 368.204C154.619 368.204 155.782 368.463 156.783 368.981C157.795 369.499 158.573 370.241 159.115 371.205C159.67 372.157 159.947 373.266 159.947 374.532C159.947 375.797 159.67 376.906 159.115 377.858C158.573 378.799 157.795 379.528 156.783 380.046C155.782 380.564 154.619 380.823 153.293 380.823H148.882V368.204H153.293ZM153.203 378.672C154.529 378.672 155.553 378.31 156.277 377.587C157 376.864 157.361 375.845 157.361 374.532C157.361 373.218 157 372.193 156.277 371.458C155.553 370.711 154.529 370.337 153.203 370.337H151.413V378.672H153.203ZM171.153 375.598C171.153 375.96 171.129 376.285 171.08 376.575H163.758C163.818 377.298 164.071 377.864 164.517 378.274C164.963 378.684 165.512 378.889 166.163 378.889C167.103 378.889 167.772 378.485 168.17 377.678H170.9C170.61 378.642 170.056 379.437 169.236 380.064C168.417 380.679 167.41 380.986 166.217 380.986C165.253 380.986 164.385 380.775 163.613 380.353C162.854 379.919 162.257 379.311 161.823 378.527C161.402 377.744 161.191 376.84 161.191 375.815C161.191 374.779 161.402 373.869 161.823 373.085C162.245 372.302 162.836 371.699 163.595 371.277C164.355 370.855 165.229 370.645 166.217 370.645C167.169 370.645 168.019 370.849 168.766 371.259C169.526 371.669 170.11 372.254 170.52 373.013C170.942 373.76 171.153 374.622 171.153 375.598ZM168.531 374.875C168.519 374.224 168.284 373.706 167.826 373.32C167.368 372.923 166.808 372.724 166.145 372.724C165.518 372.724 164.987 372.917 164.554 373.302C164.132 373.676 163.873 374.2 163.776 374.875H168.531ZM177.177 378.491L179.708 370.807H182.402L178.695 380.823H175.622L171.934 370.807H174.646L177.177 378.491ZM185.107 369.614C184.661 369.614 184.288 369.475 183.986 369.198C183.697 368.909 183.552 368.553 183.552 368.131C183.552 367.71 183.697 367.36 183.986 367.083C184.288 366.793 184.661 366.649 185.107 366.649C185.553 366.649 185.921 366.793 186.21 367.083C186.511 367.36 186.662 367.71 186.662 368.131C186.662 368.553 186.511 368.909 186.21 369.198C185.921 369.475 185.553 369.614 185.107 369.614ZM186.355 370.807V380.823H183.823V370.807H186.355ZM188.205 375.815C188.205 374.779 188.416 373.875 188.837 373.103C189.259 372.32 189.844 371.717 190.591 371.295C191.338 370.861 192.194 370.645 193.158 370.645C194.4 370.645 195.425 370.958 196.232 371.585C197.052 372.199 197.6 373.067 197.877 374.188H195.147C195.003 373.754 194.756 373.417 194.406 373.176C194.069 372.923 193.647 372.796 193.14 372.796C192.417 372.796 191.845 373.061 191.423 373.592C191.001 374.11 190.79 374.851 190.79 375.815C190.79 376.768 191.001 377.509 191.423 378.039C191.845 378.557 192.417 378.817 193.14 378.817C194.165 378.817 194.834 378.359 195.147 377.443H197.877C197.6 378.527 197.052 379.389 196.232 380.028C195.412 380.667 194.388 380.986 193.158 380.986C192.194 380.986 191.338 380.775 190.591 380.353C189.844 379.919 189.259 379.317 188.837 378.545C188.416 377.762 188.205 376.852 188.205 375.815ZM209.043 375.598C209.043 375.96 209.019 376.285 208.971 376.575H201.648C201.708 377.298 201.962 377.864 202.407 378.274C202.853 378.684 203.402 378.889 204.053 378.889C204.993 378.889 205.662 378.485 206.06 377.678H208.79C208.5 378.642 207.946 379.437 207.126 380.064C206.307 380.679 205.3 380.986 204.107 380.986C203.143 380.986 202.275 380.775 201.504 380.353C200.744 379.919 200.148 379.311 199.714 378.527C199.292 377.744 199.081 376.84 199.081 375.815C199.081 374.779 199.292 373.869 199.714 373.085C200.135 372.302 200.726 371.699 201.485 371.277C202.245 370.855 203.119 370.645 204.107 370.645C205.059 370.645 205.909 370.849 206.656 371.259C207.416 371.669 208 372.254 208.41 373.013C208.832 373.76 209.043 374.622 209.043 375.598ZM206.421 374.875C206.409 374.224 206.174 373.706 205.716 373.32C205.258 372.923 204.698 372.724 204.035 372.724C203.408 372.724 202.878 372.917 202.444 373.302C202.022 373.676 201.763 374.2 201.666 374.875H206.421Z" fill="#F9F9F9"/>
<path d="M105.94 449.139C105.94 445.421 108.954 442.407 112.672 442.407H245.437C249.155 442.407 252.169 445.421 252.169 449.139V529.144H105.94V449.139Z" fill="#F9F9F9"/>
<path d="M94.2635 529.143H263.845V530.751C263.845 534.469 260.831 537.483 257.113 537.483H100.995C97.2775 537.483 94.2635 534.469 94.2635 530.751V529.143Z" fill="#16191C"/>
<path d="M162.652 530.812V530.812C162.652 532.654 164.146 534.148 165.988 534.148H192.12C193.963 534.148 195.456 532.654 195.456 530.812V530.812" stroke="#F9F9F9" stroke-width="0.673196" stroke-linecap="round"/>
<mask id="mask3_648_549" style="mask-type:alpha" maskUnits="userSpaceOnUse" x="108" y="445" width="142" height="81">
<rect x="108.719" y="445.503" width="140.53" height="80.3031" rx="3.36598" fill="#1EBFBF"/>
</mask>
<g mask="url(#mask3_648_549)">
<rect x="108.719" y="445.503" width="140.53" height="80.3031" fill="#1EBFBF"/>
<path d="M185.355 469.877C186.15 469.899 186.9 469.914 187.506 470.023C188.774 470.352 189.969 471.056 190.59 472.465C190.59 472.465 190.73 472.716 190.831 473.438C190.933 474.16 191.087 476.164 191.087 476.164C191.3 479.491 191.323 482.952 191.357 486.214C191.302 487.49 190.953 488.689 190.423 489.786C189.127 492.466 186.753 494.532 184.968 495.606C180.55 497.895 176.277 499.934 172.66 501.576C168.832 503.036 167.094 501.57 166.517 499.83C166.401 499.357 166.36 498.869 166.378 498.419C166.378 498.419 166.413 497.34 166.678 495.568C166.943 493.795 168.895 481.033 170.992 474.491C171.521 472.979 173.493 470.141 178.186 469.877H185.355Z" fill="#16191C"/>
<path d="M184.572 475.849C184.912 475.849 185.188 476.131 185.188 476.478V478.678C185.188 479.025 184.912 479.307 184.572 479.307H184.263C182.219 479.307 180.562 480.995 180.562 483.078V486.457C180.562 490.45 177.386 493.686 173.468 493.686H173.16C172.819 493.686 172.543 493.405 172.543 493.058L172.543 490.858C172.543 490.51 172.819 490.229 173.16 490.229H173.468C175.512 490.229 177.169 488.54 177.169 486.457V483.078C177.169 479.086 180.345 475.849 184.263 475.849L184.572 475.849Z" fill="#1EBFBF"/>
<circle opacity="0.3" cx="179.226" cy="485.775" r="69.4609" stroke="#16191C" stroke-width="0.830371"/>
<circle opacity="0.15" cx="179.226" cy="485.774" r="88.6041" stroke="#1EBFBF" stroke-opacity="0.15" stroke-width="0.830371"/>
<circle opacity="0.6" cx="179.227" cy="485.773" r="50.3177" stroke="#16191C" stroke-width="0.830371"/>
<circle cx="178.992" cy="485.54" r="30.9408" stroke="#16191C" stroke-width="0.830371"/>
</g>
<rect x="121.448" y="554.054" width="114.38" height="34.8038" rx="17.4019" fill="#16191C"/>
<path d="M153.293 564.836C154.619 564.836 155.782 565.095 156.783 565.614C157.795 566.132 158.573 566.873 159.115 567.838C159.67 568.79 159.947 569.899 159.947 571.164C159.947 572.43 159.67 573.539 159.115 574.491C158.573 575.431 157.795 576.16 156.783 576.679C155.782 577.197 154.619 577.456 153.293 577.456H148.882V564.836H153.293ZM153.203 575.305C154.529 575.305 155.553 574.943 156.277 574.22C157 573.497 157.361 572.478 157.361 571.164C157.361 569.85 157 568.826 156.277 568.091C155.553 567.343 154.529 566.97 153.203 566.97H151.413V575.305H153.203ZM171.153 572.231C171.153 572.593 171.129 572.918 171.08 573.207H163.758C163.818 573.93 164.071 574.497 164.517 574.907C164.963 575.317 165.512 575.522 166.163 575.522C167.103 575.522 167.772 575.118 168.17 574.31H170.9C170.61 575.274 170.056 576.07 169.236 576.697C168.417 577.311 167.41 577.619 166.217 577.619C165.253 577.619 164.385 577.408 163.613 576.986C162.854 576.552 162.257 575.943 161.823 575.16C161.402 574.376 161.191 573.472 161.191 572.448C161.191 571.411 161.402 570.501 161.823 569.718C162.245 568.934 162.836 568.332 163.595 567.91C164.355 567.488 165.229 567.277 166.217 567.277C167.169 567.277 168.019 567.482 168.766 567.892C169.526 568.302 170.11 568.886 170.52 569.646C170.942 570.393 171.153 571.255 171.153 572.231ZM168.531 571.508C168.519 570.857 168.284 570.339 167.826 569.953C167.368 569.555 166.808 569.356 166.145 569.356C165.518 569.356 164.987 569.549 164.554 569.935C164.132 570.308 163.873 570.833 163.776 571.508H168.531ZM177.177 575.124L179.708 567.44H182.402L178.695 577.456H175.622L171.934 567.44H174.646L177.177 575.124ZM185.107 566.247C184.661 566.247 184.288 566.108 183.986 565.831C183.697 565.541 183.552 565.186 183.552 564.764C183.552 564.342 183.697 563.993 183.986 563.715C184.288 563.426 184.661 563.281 185.107 563.281C185.553 563.281 185.921 563.426 186.21 563.715C186.511 563.993 186.662 564.342 186.662 564.764C186.662 565.186 186.511 565.541 186.21 565.831C185.921 566.108 185.553 566.247 185.107 566.247ZM186.355 567.44V577.456H183.823V567.44H186.355ZM188.205 572.448C188.205 571.411 188.416 570.507 188.837 569.736C189.259 568.952 189.844 568.35 190.591 567.928C191.338 567.494 192.194 567.277 193.158 567.277C194.4 567.277 195.425 567.59 196.232 568.217C197.052 568.832 197.6 569.7 197.877 570.821H195.147C195.003 570.387 194.756 570.049 194.406 569.808C194.069 569.555 193.647 569.429 193.14 569.429C192.417 569.429 191.845 569.694 191.423 570.224C191.001 570.742 190.79 571.484 190.79 572.448C190.79 573.4 191.001 574.141 191.423 574.672C191.845 575.19 192.417 575.449 193.14 575.449C194.165 575.449 194.834 574.991 195.147 574.075H197.877C197.6 575.16 197.052 576.022 196.232 576.661C195.412 577.299 194.388 577.619 193.158 577.619C192.194 577.619 191.338 577.408 190.591 576.986C189.844 576.552 189.259 575.949 188.837 575.178C188.416 574.395 188.205 573.485 188.205 572.448ZM209.043 572.231C209.043 572.593 209.019 572.918 208.971 573.207H201.648C201.708 573.93 201.962 574.497 202.407 574.907C202.853 575.317 203.402 575.522 204.053 575.522C204.993 575.522 205.662 575.118 206.06 574.31H208.79C208.5 575.274 207.946 576.07 207.126 576.697C206.307 577.311 205.3 577.619 204.107 577.619C203.143 577.619 202.275 577.408 201.504 576.986C200.744 576.552 200.148 575.943 199.714 575.16C199.292 574.376 199.081 573.472 199.081 572.448C199.081 571.411 199.292 570.501 199.714 569.718C200.135 568.934 200.726 568.332 201.485 567.91C202.245 567.488 203.119 567.277 204.107 567.277C205.059 567.277 205.909 567.482 206.656 567.892C207.416 568.302 208 568.886 208.41 569.646C208.832 570.393 209.043 571.255 209.043 572.231ZM206.421 571.508C206.409 570.857 206.174 570.339 205.716 569.953C205.258 569.555 204.698 569.356 204.035 569.356C203.408 569.356 202.878 569.549 202.444 569.935C202.022 570.308 201.763 570.833 201.666 571.508H206.421Z" fill="#F9F9F9"/>
</svg>
